<svg xmlns="http://www.w3.org/2000/svg" id="_025_SCIENCE" width="24" height="24" data-name="025_SCIENCE" viewBox="0 0 24 24"><path d="M12,13a1,1,0,0,1-1-1,1,1,0,0,1,.08-.38,1,1,0,0,1,.21-.33l.15-.12.18-.09L11.8,11a1,1,0,0,1,.91.27,1.15,1.15,0,0,1,.21.33A1,1,0,0,1,13,12a1,1,0,0,1-1,1Z" class="cls-1"/><path d="M12,13a1,1,0,0,1-1-1,1,1,0,0,1,.08-.38,1,1,0,0,1,.21-.33l.15-.12.18-.09L11.8,11a1,1,0,0,1,.91.27,1.15,1.15,0,0,1,.21.33A1,1,0,0,1,13,12a1,1,0,0,1-1,1Z" class="cls-1"/><path d="M12,13a1,1,0,0,1-1-1,1,1,0,0,1,.08-.38,1,1,0,0,1,.21-.33l.15-.12.18-.09L11.8,11a1,1,0,0,1,.91.27,1.15,1.15,0,0,1,.21.33A1,1,0,0,1,13,12a1,1,0,0,1-1,1Z" class="cls-1"/><path d="M7.5,20.79a1,1,0,0,1-.5-.14A10,10,0,0,1,2,12a1,1,0,0,1,1-1h9a1,1,0,0,1,.87.5,1,1,0,0,1,0,1l-4.5,7.79a1,1,0,0,1-.61.46A.75.75,0,0,1,7.5,20.79ZM4.06,13a8.06,8.06,0,0,0,3.11,5.37L10.27,13Z" class="cls-1"/><path d="M16.5,20.79a.75.75,0,0,1-.26,0,1,1,0,0,1-.61-.46l-4.5-7.79a1,1,0,1,1,1.74-1l4,6.87A8.06,8.06,0,0,0,19.94,13H17.09a1,1,0,0,1,0-2H21a1,1,0,0,1,1,1,10,10,0,0,1-5,8.65A1,1,0,0,1,16.5,20.79Z" class="cls-1"/><path d="M12,13a1,1,0,0,1-.87-.5L6.64,4.71A1,1,0,0,1,7,3.35a10.08,10.08,0,0,1,10,0,1,1,0,0,1,.36,1.36L12.87,12.5A1,1,0,0,1,12,13ZM8.9,4.63,12,10l3.1-5.37A8,8,0,0,0,8.9,4.63Z" class="cls-1"/><path d="M12,9a3,3,0,1,0,3,3A3,3,0,0,0,12,9Z" class="cls-1"/></svg>