<?xml version="1.0" encoding="UTF-8" standalone="no"?>
<svg
   version="1.0"
   width="4363.000000pt"
   height="994.000000pt"
   viewBox="0 0 4363.000000 994.000000"
   preserveAspectRatio="xMidYMid meet"
   id="svg38"
   sodipodi:docname="nuketalk.svg"
   inkscape:version="1.2.2 (b0a8486541, 2022-12-01)"
   xmlns:inkscape="http://www.inkscape.org/namespaces/inkscape"
   xmlns:sodipodi="http://sodipodi.sourceforge.net/DTD/sodipodi-0.dtd"
   xmlns="http://www.w3.org/2000/svg"
   xmlns:svg="http://www.w3.org/2000/svg">
  <defs
     id="defs42" />
  <sodipodi:namedview
     id="namedview40"
     pagecolor="#ffffff"
     bordercolor="#000000"
     borderopacity="0.25"
     inkscape:showpageshadow="2"
     inkscape:pageopacity="0.0"
     inkscape:pagecheckerboard="0"
     inkscape:deskcolor="#d1d1d1"
     inkscape:document-units="pt"
     showgrid="false"
     inkscape:zoom="0.10554664"
     inkscape:cx="639.5277"
     inkscape:cy="270.02281"
     inkscape:window-width="1366"
     inkscape:window-height="732"
     inkscape:window-x="0"
     inkscape:window-y="0"
     inkscape:window-maximized="1"
     inkscape:current-layer="g36" />
  <g
     transform="translate(0.000000,994.000000) scale(0.100000,-0.100000)"
     fill="#000000"
     stroke="none"
     id="g36">
    <path
       d="M2960 9925 c-36 -7 -87 -21 -115 -30 -73 -25 -279 -131 -472 -241 -1062 -609 -1740 -1383 -2175 -2484 -142 -361 -193 -706 -129 -872 31 -79 97 -150 179 -190 62 -31 73 -33 172 -33 95 0 111 3 167 29 65 30 147 105 177 164 9 17 54 141 100 274 103 303 140 396 226 573 333 687 929 1315 1656 1743 66 39 232 126 368 192 205 100 257 130 296 169 165 165 174 461 18 607 -107 100 -281 137 -468 99z"
       id="path2"
       style="stroke:#afafaf;stroke-opacity:1;fill:#000000;fill-opacity:1" />
    <path
       d="M6973 9855 c-125 -34 -205 -100 -263 -218 -87 -178 -68 -379 48 -495 20 -20 174 -123 342 -229 168 -105 357 -228 420 -273 572 -407 1005 -906 1289 -1484 85 -175 143 -320 236 -596 39 -118 84 -240 98 -270 121 -256 437 -307 655 -107 88 82 131 190 139 352 6 128 -7 192 -89 439 -317 953 -1049 1869 -2028 2538 -155 106 -413 262 -497 300 -124 56 -246 71 -350 43z"
       id="path4"
       style="stroke:#afafaf;stroke-opacity:1;fill:#000000;fill-opacity:1" />
    <path
       d="M4426 8590 c-472 -99 -943 -272 -1251 -460 -401 -244 -802 -622 -1102 -1040 -249 -346 -437 -811 -528 -1305 -21 -116 -55 -361 -55 -400 0 -7 230 -10 677 -10 l677 0 8 30 c4 17 21 89 39 160 53 221 150 455 269 650 166 272 442 544 724 714 199 120 475 233 616 250 40 5 76 13 80 18 4 4 9 325 11 713 4 621 2 705 -11 707 -8 1 -77 -12 -154 -27z"
       id="path6"
       style="stroke:#afafaf;stroke-opacity:1;fill:#000000;fill-opacity:1" />
    <path
       d="M5347 8584 c-4 -4 -7 -321 -7 -704 l0 -698 118 -32 c394 -107 746 -315 1009 -594 283 -299 428 -607 532 -1127 l12 -55 492 0 c304 0 575 -5 710 -13 120 -7 220 -11 223 -9 7 7 -22 250 -51 424 -87 521 -231 875 -526 1290 -536 754 -1191 1232 -1956 1428 -205 53 -539 107 -556 90z"
       id="path8"
       style="stroke:#afafaf;stroke-opacity:1;fill:#000000;fill-opacity:1" />
    <path
       d="M21841 8135 c-318 -56 -332 -61 -375 -119 l-21 -27 0 -3104 0 -3104 21 -28 c11 -15 40 -38 65 -51 44 -22 47 -23 376 -20 317 3 333 4 359 24 15 11 37 33 48 48 21 27 21 38 26 937 l5 910 95 -77 c404 -327 873 -817 1215 -1269 54 -71 147 -204 206 -295 153 -235 155 -237 186 -257 25 -17 58 -18 418 -18 374 0 391 1 425 20 45 27 73 77 73 131 0 34 -11 62 -57 139 -198 331 -566 825 -914 1225 -158 182 -651 676 -797 800 -60 51 -115 98 -122 104 -9 8 48 72 243 271 432 439 1437 1485 1463 1521 45 63 26 157 -42 208 -28 20 -40 21 -415 24 -258 2 -399 0 -424 -8 -29 -8 -62 -39 -155 -143 -260 -292 -864 -925 -1222 -1282 l-181 -180 0 1785 c0 1764 0 1785 -20 1818 -28 46 -76 72 -130 71 -25 0 -182 -25 -349 -54z"
       id="path10"
       style="stroke:#afafaf;stroke-opacity:1;fill:#000000;fill-opacity:1" />
    <path
       d="M38401 8135 c-318 -56 -332 -61 -375 -119 l-21 -27 0 -2657 c0 -2172 2 -2673 13 -2747 55 -367 184 -596 426 -756 174 -115 403 -181 725 -210 125 -11 132 -10 175 11 33 16 50 32 65 63 25 54 114 559 106 599 -7 31 -47 83 -76 99 -10 5 -67 18 -126 29 -119 21 -231 57 -294 92 -50 28 -75 68 -97 155 -15 63 -17 283 -22 2748 -5 2562 -6 2682 -23 2708 -27 42 -75 67 -127 66 -25 0 -182 -25 -349 -54z"
       id="path12"
       style="stroke:#afafaf;stroke-opacity:1;fill:#000000;fill-opacity:1" />
    <path
       d="M40502 8134 c-323 -57 -347 -65 -377 -124 -13 -26 -15 -407 -15 -3126 l0 -3097 21 -34 c42 -67 45 -68 424 -68 324 0 342 1 375 20 19 12 43 36 55 55 20 34 20 50 23 933 1 493 5 897 8 897 10 0 129 -96 259 -209 169 -146 524 -505 699 -706 271 -310 439 -532 609 -801 67 -107 103 -154 128 -169 33 -19 51 -20 426 -20 380 0 392 1 419 21 51 37 69 71 69 127 0 45 -7 64 -54 142 -186 308 -555 809 -849 1150 -268 310 -689 734 -909 913 l-92 76 307 311 c290 293 795 815 1217 1257 105 110 198 213 208 231 38 69 6 161 -68 197 -39 19 -62 20 -418 20 -315 0 -383 -2 -415 -15 -26 -11 -65 -46 -123 -112 -224 -258 -587 -640 -1044 -1101 l-370 -373 -5 1778 -5 1778 -23 36 c-27 45 -76 69 -134 68 -23 0 -180 -25 -346 -55z"
       id="path14"
       style="stroke:#afafaf;stroke-opacity:1;fill:#000000;fill-opacity:1" />
    <path
       d="M11295 7516 c-41 -18 -83 -69 -90 -109 -3 -18 -4 -1291 -3 -2829 l3 -2797 21 -28 c11 -15 40 -38 64 -50 43 -22 52 -23 370 -23 318 0 327 1 370 23 24 12 53 35 64 50 l21 28 5 2090 5 2089 28 -35 c15 -19 128 -165 250 -323 384 -499 558 -737 1055 -1447 464 -662 1137 -1706 1436 -2227 59 -103 121 -199 137 -212 41 -35 78 -38 386 -34 256 3 273 4 299 24 15 11 37 33 48 48 l21 27 3 2816 2 2815 -22 39 c-14 25 -37 46 -64 59 -40 20 -57 21 -387 18 -331 -3 -347 -4 -373 -24 -15 -11 -37 -33 -48 -48 -21 -27 -21 -28 -26 -1958 l-5 -1930 -170 263 c-314 490 -589 894 -901 1326 -166 229 -717 967 -888 1188 -433 561 -929 1141 -1003 1172 -46 19 -564 18 -608 -1z"
       id="path16"
       style="stroke:#afafaf;stroke-opacity:1;fill:#000000;fill-opacity:1" />
    <path
       d="M29325 7516 c-38 -17 -60 -41 -80 -89 -12 -30 -15 -87 -15 -320 0 -274 1 -284 23 -327 12 -24 35 -53 50 -64 28 -21 39 -21 863 -24 l834 -2 2 -2454 3 -2455 21 -28 c11 -15 40 -38 65 -51 44 -23 47 -23 384 -20 321 3 342 4 375 23 19 12 43 36 55 55 20 35 20 41 23 2482 l2 2448 828 2 827 3 33 23 c66 48 67 53 67 392 0 287 -1 307 -20 339 -11 19 -33 43 -48 55 l-28 21 -2117 2 c-1742 2 -2122 0 -2147 -11z"
       id="path18"
       style="stroke:#afafaf;stroke-opacity:1;fill:#000000;fill-opacity:1" />
    <path
       d="M4790 6574 c-497 -63 -939 -360 -1189 -799 -94 -165 -166 -382 -192 -580 -16 -127 -6 -394 20 -513 47 -215 145 -437 269 -612 85 -120 271 -307 387 -389 101 -71 295 -169 397 -200 437 -133 898 -61 1279 200 462 317 752 939 701 1504 -24 268 -103 490 -253 716 -81 120 -272 312 -394 395 -180 122 -397 214 -602 254 -105 21 -342 34 -423 24z m-71 -829 c92 -22 177 -71 251 -145 257 -256 197 -693 -120 -872 -84 -48 -147 -63 -260 -62 -83 0 -119 5 -170 23 -348 121 -480 545 -264 848 127 177 347 259 563 208z"
       id="path20"
       style="stroke:#afafaf;stroke-opacity:1;fill:#000000;fill-opacity:1" />
    <path
       d="M26810 6204 c-503 -77 -943 -340 -1245 -745 -262 -351 -399 -729 -446 -1230 -18 -197 -7 -627 21 -814 26 -177 84 -412 135 -551 233 -631 713 -1052 1367 -1198 203 -46 311 -57 584 -63 290 -6 449 4 660 43 217 39 546 140 659 202 38 21 56 38 74 76 l24 48 -57 282 c-32 154 -65 294 -74 310 -24 41 -62 67 -108 73 -30 4 -61 -4 -139 -35 -330 -131 -517 -166 -900 -166 -175 0 -256 4 -340 18 -412 68 -659 236 -823 561 -59 119 -118 312 -142 465 -6 41 -13 87 -16 103 l-6 27 1376 0 c949 0 1383 3 1403 11 39 14 73 48 90 88 21 49 30 461 14 655 -45 558 -205 988 -488 1311 -249 285 -623 474 -1051 530 -143 19 -443 18 -572 -1z m545 -829 c33 -9 96 -34 140 -55 295 -142 456 -413 519 -877 l6 -43 -975 0 -975 0 0 21 c0 62 69 277 126 393 145 294 401 506 689 570 94 21 382 15 470 -9z"
       id="path22"
       style="stroke:#afafaf;stroke-opacity:1;fill:#000000;fill-opacity:1" />
    <path
       d="M34893 6205 c-265 -27 -608 -103 -737 -165 -67 -32 -106 -82 -106 -136 1 -70 89 -576 104 -600 38 -56 123 -80 193 -53 15 6 104 33 196 60 254 73 338 84 687 84 274 0 301 -2 384 -23 182 -46 320 -153 391 -304 65 -137 115 -386 115 -576 l0 -78 -102 18 c-485 87 -1046 51 -1483 -93 -631 -209 -966 -707 -931 -1383 20 -385 126 -662 341 -894 205 -221 502 -361 915 -433 237 -41 790 -38 1180 7 287 32 862 140 906 169 14 9 34 30 45 48 19 31 19 56 16 1497 -3 1608 1 1501 -63 1755 -26 103 -93 285 -137 372 -51 100 -152 237 -236 322 -234 234 -548 371 -940 411 -139 14 -575 11 -738 -5z m897 -2526 c97 -9 248 -35 313 -55 16 -5 17 -42 17 -588 l0 -583 -87 -12 c-287 -38 -807 -40 -983 -3 -271 57 -430 161 -491 322 -75 195 -61 489 30 632 60 95 227 197 386 237 72 18 235 45 325 54 81 9 384 6 490 -4z"
       id="path24"
       style="stroke:#afafaf;stroke-opacity:1;fill:#000000;fill-opacity:1" />
    <path
       d="M16935 6123 c-32 -9 -74 -42 -90 -73 -23 -44 -22 -2560 0 -2778 57 -551 211 -936 485 -1213 216 -219 444 -338 774 -404 205 -40 306 -49 591 -48 426 1 650 24 1070 108 348 70 537 118 574 144 66 47 62 -107 59 2138 l-3 2032 -21 27 c-11 15 -33 37 -48 48 -27 20 -40 21 -374 21 -347 0 -347 0 -380 -23 -17 -13 -38 -33 -45 -45 -9 -17 -13 -402 -17 -1787 l-5 -1764 -102 -17 c-162 -27 -302 -39 -538 -46 -446 -12 -687 48 -850 211 -132 133 -203 309 -258 641 -20 127 -21 163 -27 1425 -5 1272 -5 1296 -25 1329 -11 19 -33 43 -48 55 -27 20 -40 21 -365 23 -185 0 -346 -1 -357 -4z"
       id="path26"
       style="stroke:#afafaf;stroke-opacity:1;fill:#000000;fill-opacity:1" />
    <path
       d="M7281 4619 c-156 -4 -287 -11 -291 -16 -4 -4 -19 -66 -33 -138 -63 -314 -170 -576 -334 -815 -280 -405 -647 -673 -1148 -836 l-130 -42 -3 -716 -2 -716 27 0 c16 0 81 9 146 20 1523 257 2622 1345 2901 2870 27 149 53 366 44 375 -6 6 -648 25 -793 23 -55 -1 -228 -5 -384 -9z"
       id="path28"
       style="stroke:#afafaf;stroke-opacity:1;fill:#000000;fill-opacity:1" />
    <path
       d="M1805 4610 l-299 -5 2 -50 c5 -87 42 -325 72 -463 282 -1290 1278 -2312 2585 -2652 149 -39 409 -100 426 -100 10 0 10 452 0 1049 l-6 374 -25 8 c-395 114 -664 254 -958 497 -381 314 -652 751 -727 1172 -32 184 -21 164 -95 171 -74 8 -529 7 -975 -1z"
       id="path30"
       style="stroke:#afafaf;stroke-opacity:1;fill:#000000;fill-opacity:1" />
    <path
       d="M315 3747 c-205 -53 -331 -243 -312 -470 9 -97 46 -230 113 -406 240 -623 605 -1172 1124 -1691 327 -328 660 -594 1046 -836 461 -290 722 -382 929 -329 210 55 349 260 315 467 -23 144 -113 256 -275 342 -207 111 -459 255 -585 335 -694 443 -1175 945 -1569 1635 -106 187 -183 354 -258 561 -87 239 -135 310 -249 366 -55 27 -79 33 -147 36 -45 1 -104 -3 -132 -10z"
       id="path32"
       style="stroke:#afafaf;stroke-opacity:1;fill:#000000;fill-opacity:1" />
    <path
       d="M9365 3729 c-98 -34 -171 -94 -212 -174 -15 -27 -63 -162 -108 -300 -46 -137 -108 -308 -139 -380 -266 -608 -704 -1139 -1316 -1595 -171 -127 -289 -205 -529 -350 -239 -145 -323 -216 -365 -310 -62 -138 -40 -327 52 -448 36 -47 136 -115 206 -141 158 -58 282 -33 514 106 278 166 632 417 887 629 162 134 520 491 647 644 372 450 646 936 823 1465 122 363 127 592 16 732 -94 119 -317 176 -476 122z"
       id="path34"
       style="stroke:#afafaf;stroke-opacity:1;fill:#000000;fill-opacity:1" />
  </g>
</svg>
