<?xml version="1.0" standalone="no"?>
<!DOCTYPE svg PUBLIC "-//W3C//DTD SVG 1.1//EN" "http://www.w3.org/Graphics/SVG/1.1/DTD/svg11.dtd" >
<svg xmlns="http://www.w3.org/2000/svg">
<metadata>Generated by IcoMoon</metadata>
<defs>
<font id="NukeHub" horiz-adv-x="1024">
<font-face units-per-em="1024" ascent="960" descent="-64" />
<missing-glyph horiz-adv-x="1024" />
<glyph unicode="&#x20;" horiz-adv-x="512" d="" />
<glyph unicode="&#xe900;" glyph-name="edit-node" d="M287.357 960c-17.606 0-31.878-14.272-31.878-31.878v0-127.514c0-17.606 14.272-31.878 31.878-31.878v0h127.514c17.606 0 31.878 14.272 31.878 31.878v0 127.514c0 17.606-14.272 31.878-31.878 31.878v0h-127.514zM319.236 896.243h63.757v-63.757h-63.757v63.757zM319.236 704.972v-345.563c-0.268-1.553-0.421-3.341-0.421-5.164s0.153-3.612 0.447-5.352l-0.026 0.188v-249.8c0-17.606 14.272-31.878 31.878-31.878v0h121.648l15.174 63.757h-104.944v191.271h127.514v-31.878c0-17.606 14.272-31.878 31.878-31.878v0h52.918l106.474 108.196v51.197c0 17.606-14.272 31.878-31.878 31.878v0h-127.514c-17.606 0-31.878-14.272-31.878-31.878v0-31.878h-127.514v191.271h127.514v-31.878c0-17.606 14.272-31.878 31.878-31.878v0h127.514c17.606 0 31.878 14.272 31.878 31.878v0 127.514c0 17.606-14.272 31.878-31.878 31.878v0h-127.514c-17.606 0-31.878-14.272-31.878-31.878v0-31.878h-127.514v63.757h-63.757zM574.263 641.215h63.757v-63.757h-63.757v63.757zM905.991 449.69c-22.33-0.043-42.506-9.233-56.985-24.022l-0.014-0.014-297.362-302.335-44.375-186.553 186.553 44.311 6.248 6.248 296.087 291.178c31.878 30.986 32.197 83.012 0.765 114.38l-33.472 33.536c-14.483 14.385-34.439 23.276-56.472 23.276-0.32 0-0.639-0.002-0.958-0.006h0.049zM906.373 386.443c4.272 0 8.543-1.721 11.923-5.101l33.536-33.536c3.13-2.98 5.077-7.178 5.077-11.831 0-4.714-1.999-8.962-5.195-11.942l-0.010-0.009h-0.128l-289.903-284.993-68.475-16.322 16.322 68.475 284.993 290.030c2.981 3.169 7.181 5.162 11.847 5.228h0.012zM574.263 386.188h63.757v-63.757h-63.757v26.778c0.268 1.553 0.421 3.341 0.421 5.164s-0.153 3.612-0.447 5.352l0.026-0.188v26.65z" />
<glyph unicode="&#xe901;" glyph-name="edit-profile" d="M510.5 832.375c-105.418 0-191.438-86.019-191.438-191.438s86.019-191.438 191.438-191.438c76.001 0 147.088 44.669 201.648 86.275 54.879 41.861 93.23 83.722 93.23 83.722l19.718 21.441-19.973 21.696s-38.607 41.861-93.166 83.467c-54.943 41.67-125.966 86.275-201.456 86.275zM510.5 449.5c-175.995 0-319.063-143.068-319.063-319.063h63.813c0 140.834 114.416 255.25 255.25 255.25 59.346 0 113.14-21.186 156.532-54.879l44.669 45.435c-55.198 44.86-124.754 73.257-201.201 73.257zM510.5 768.562c48.115 0 112.693-35.097 162.531-73.257 35.863-27.184 47.859-41.159 61.069-54.368-12.954-13.401-24.887-27.184-60.622-54.368-49.71-38.096-114.033-73.257-162.977-73.257-70.832 0-127.625 56.793-127.625 127.625s56.793 127.625 127.625 127.625zM906.33 449.244c-22.271-0.167-42.355-9.392-56.778-24.169l-0.016-0.016-297.686-302.599-44.35-186.46 186.46 44.158 6.254 6.445 296.601 291.368c31.651 30.949 32.162 83.020 0.511 114.416l-33.438 33.693c-14.416 14.323-34.281 23.175-56.215 23.175-0.473 0-0.944-0.004-1.415-0.012l0.071 0.001zM906.84 385.942c4.212 0 8.487-1.723 11.933-5.233l33.438-33.438c7.019-6.7 7.019-16.91 0-23.93l-290.156-284.859-68.79-16.719 16.464 68.79 285.37 290.156c2.914 3.202 7.091 5.211 11.738 5.233h0.004z" />
<glyph unicode="&#xe902;" glyph-name="profile-1" d="M768 576c0 160-128 288-288 288s-288-128-288-288c0-108.8 57.6-201.6 147.2-249.6-121.6-48-214.4-153.6-240-288-3.2-16 6.4-35.2 25.6-38.4h3.2c16 0 28.8 9.6 32 25.6 28.8 150.4 160 259.2 313.6 262.4h6.4c160 0 288 128 288 288zM256 576c0 124.8 99.2 224 224 224s224-99.2 224-224c0-121.6-99.2-220.8-220.8-224h-9.6c-120.856 3.215-217.601 101.952-217.601 223.286 0 0.251 0 0.502 0.001 0.753v-0.039zM896 256h-256c-19.2 0-32-12.8-32-32v-192c0-19.2 12.8-32 32-32h256c19.2 0 32 12.8 32 32v192c0 16-12.8 32-32 32zM864 64h-192v128h192v-128zM736 96h32c19.2 0 32 12.8 32 32s-12.8 32-32 32h-32c-19.2 0-32-12.8-32-32s16-32 32-32z" />
<glyph unicode="&#xe903;" glyph-name="settings-1" d="M874.667 803.392c50.165-18.104 85.377-65.303 85.377-120.725s-35.213-102.621-84.486-120.444l-0.892-0.282v-519.275c0-23.564-19.103-42.667-42.667-42.667s-42.667 19.103-42.667 42.667v0 519.275c-50.181 18.096-85.408 65.302-85.408 120.736s35.227 102.64 84.516 120.454l0.892 0.282v49.92c0 23.564 19.103 42.667 42.667 42.667s42.667-19.103 42.667-42.667v0-49.941zM832 640c0.002 0 0.004 0 0.007 0 23.564 0 42.667 19.103 42.667 42.667s-19.103 42.667-42.667 42.667c-0.002 0-0.005 0-0.007 0v0c-23.561-0.004-42.66-19.105-42.66-42.667s19.099-42.663 42.66-42.667v0zM234.667 568.725c50.165-18.104 85.377-65.303 85.377-120.725s-35.213-102.621-84.486-120.444l-0.892-0.282v-284.608c0-23.564-19.103-42.667-42.667-42.667s-42.667 19.103-42.667 42.667v284.608c-50.181 18.096-85.408 65.302-85.408 120.736s35.227 102.64 84.516 120.454l0.892 0.282v284.587c0 23.564 19.103 42.667 42.667 42.667s42.667-19.103 42.667-42.667v0-284.608zM192 405.333c23.564 0 42.667 19.103 42.667 42.667s-19.103 42.667-42.667 42.667v0c-23.564 0-42.667-19.103-42.667-42.667s19.103-42.667 42.667-42.667v0zM554.667 853.333v-519.275c50.165-18.104 85.377-65.303 85.377-120.725s-35.213-102.621-84.486-120.444l-0.892-0.282v-49.941c0-23.564-19.103-42.667-42.667-42.667s-42.667 19.103-42.667 42.667v49.941c-50.165 18.104-85.377 65.303-85.377 120.725s35.213 102.621 84.486 120.444l0.892 0.282v519.275c0 23.564 19.103 42.667 42.667 42.667s42.667-19.103 42.667-42.667v0zM512 170.667c0.002 0 0.004 0 0.007 0 23.564 0 42.667 19.103 42.667 42.667s-19.103 42.667-42.667 42.667c-0.002 0-0.005 0-0.007 0v0c-23.561-0.004-42.66-19.105-42.66-42.667s19.099-42.663 42.66-42.667v0z" />
<glyph unicode="&#xe904;" glyph-name="settings-2" d="M69.5 729.25c-20.71 0-37.5 16.79-37.5 37.5s16.79 37.5 37.5 37.5v0h436.875c20.71 0 37.5-16.79 37.5-37.5s-16.79-37.5-37.5-37.5v0h-436.875zM731.375 607.375c-62.033 0-112.5 50.467-112.5 112.5v95.625c0 62.033 50.467 112.5 112.5 112.5s112.5-50.467 112.5-112.5v-11.25h110.625c20.71 0 37.5-16.79 37.5-37.5s-16.79-37.5-37.5-37.5v0h-110.625v-9.375c0-62.033-50.467-112.5-112.5-112.5zM693.875 815.5v-95.625c0-20.678 16.822-37.5 37.5-37.5s37.5 16.822 37.5 37.5v95.625c0 20.678-16.822 37.5-37.5 37.5s-37.5-16.822-37.5-37.5zM506.285 164.875c20.71 0 37.5-16.79 37.5-37.5s-16.79-37.5-37.5-37.5v0h-436.785c-20.71 0-37.5 16.79-37.5 37.5s16.79 37.5 37.5 37.5v0h436.785zM69.5 410.725c-20.71 0-37.5 16.79-37.5 37.5s16.79 37.5 37.5 37.5v0h106.875c20.71 0 37.5-16.79 37.5-37.5s-16.79-37.5-37.5-37.5v0h-106.875zM954.5 485.725c20.71 0 37.5-16.79 37.5-37.5s-16.79-37.5-37.5-37.5v0h-440.625v-9.6c0-62.033-50.467-112.5-112.5-112.5s-112.5 50.467-112.5 112.5v97.5c0 62.033 50.467 112.5 112.5 112.5s112.5-50.467 112.5-112.5v-12.9h440.625zM438.875 401.125v97.5c0 20.678-16.822 37.5-37.5 37.5s-37.5-16.822-37.5-37.5v-97.5c0-20.678 16.822-37.5 37.5-37.5s37.5 16.822 37.5 37.5zM954.5 164.875c20.71 0 37.5-16.79 37.5-37.5s-16.79-37.5-37.5-37.5v0h-110.715v-9.375c0-62.033-50.467-112.5-112.5-112.5-62.025 0-112.5 50.467-112.5 112.5v95.625c0 62.033 50.475 112.5 112.5 112.5 62.033 0 112.5-50.467 112.5-112.5v-11.25h110.715zM768.785 80.5v95.625c0 20.678-16.822 37.5-37.5 37.5-20.67 0-37.5-16.822-37.5-37.5v-95.625c0-20.678 16.83-37.5 37.5-37.5 20.678 0 37.5 16.822 37.5 37.5z" />
<glyph unicode="&#xe905;" glyph-name="settings-3" d="M170.667 533.333h85.333v-341.419c0-23.509-18.944-42.581-42.667-42.581-23.552 0-42.667 19.029-42.667 42.581v341.419zM170.667 746.667c0 23.552 18.944 42.667 42.667 42.667 23.552 0 42.667-18.944 42.667-42.667v-42.667h-85.333v42.667zM128 661.333h170.667v-85.333h-170.667v85.333zM426.667 362.667h170.667v-85.333h-170.667v85.333zM725.333 490.667h170.667v-85.333h-170.667v85.333zM469.333 234.667h85.333v-42.667c0-23.552-18.944-42.667-42.667-42.667-23.552 0-42.667 18.944-42.667 42.667v42.667zM469.333 746.752c0 23.509 18.944 42.581 42.667 42.581 23.552 0 42.667-19.029 42.667-42.581v-341.419h-85.333v341.419zM768 362.667h85.333v-170.667c0-23.552-18.944-42.667-42.667-42.667-23.552 0-42.667 18.944-42.667 42.667v170.667zM768 747.093c0 23.296 18.944 42.24 42.667 42.24 0.001 0 0.001 0 0.002 0 23.414 0 42.423-18.86 42.664-42.217v-213.783h-85.333v213.76z" />
<glyph unicode="&#xe906;" glyph-name="arrow-circle-right-ou" d="M725.333 448v3.84c-0.213 4.35-1.134 8.426-2.65 12.199l0.090-0.253c-1.227 3.102-2.808 5.781-4.738 8.164l0.045-0.058c-1.233 2.107-2.502 3.919-3.899 5.621l0.059-0.075-122.027 128c-7.794 8.178-18.77 13.263-30.933 13.263-23.584 0-42.703-19.119-42.703-42.703 0-11.421 4.483-21.795 11.786-29.457l-0.016 0.017 52.48-55.893h-241.493c-23.564 0-42.667-19.103-42.667-42.667s19.103-42.667 42.667-42.667h238.507l-55.467-55.040c-7.795-7.733-12.621-18.45-12.621-30.293s4.826-22.56 12.618-30.291l0.003-0.003c7.733-7.795 18.45-12.621 30.293-12.621s22.56 4.826 30.291 12.618l128.003 128.003c3.733 3.822 6.76 8.354 8.856 13.372l0.104 0.282c2.147 4.908 3.401 10.626 3.413 16.635v0.005zM512 874.667c-235.641 0-426.667-191.025-426.667-426.667s191.025-426.667 426.667-426.667c235.641 0 426.667 191.025 426.667 426.667v0c0 235.641-191.025 426.667-426.667 426.667v0zM512 106.667c-188.513 0-341.333 152.82-341.333 341.333s152.82 341.333 341.333 341.333c188.513 0 341.333-152.82 341.333-341.333v0c0-188.513-152.82-341.333-341.333-341.333v0z" />
<glyph unicode="&#xe907;" glyph-name="dashboard-1" d="M480 416v-384c0-53.019-42.981-96-96-96v0h-288c-53.019 0-96 42.981-96 96v0 288c0 53.019 42.981 96 96 96v0h384zM928 416c53.019 0 96-42.981 96-96v0-288c0-53.019-42.981-96-96-96v0h-288c-53.019 0-96 42.981-96 96v0 384h384zM384 320h-288v-288h288v288zM928 320h-288v-288h288v288zM384 960c53.019 0 96-42.981 96-96v0-384h-384c-53.019 0-96 42.981-96 96v0 288c0 53.019 42.981 96 96 96v0h288zM784 960c132.549 0 240-107.451 240-240s-107.451-240-240-240v0c-132.549 0-240 107.451-240 240s107.451 240 240 240v0zM384 864h-288v-288h288v288zM784 864c-79.529 0-144-64.472-144-144s64.472-144 144-144v0c79.529 0 144 64.472 144 144s-64.472 144-144 144v0z" />
<glyph unicode="&#xe908;" glyph-name="arrow-circle-up-ou" d="M542.293 648.96c-3.822 3.733-8.354 6.76-13.372 8.856l-0.282 0.104c-4.908 2.147-10.626 3.401-16.635 3.413h-4.272c-4.201-0.213-8.13-1.134-11.751-2.646l0.231 0.086c-3.102-1.227-5.781-2.808-8.164-4.738l0.058 0.045c-2.107-1.233-3.919-2.502-5.621-3.899l0.075 0.059-128-122.027c-8.178-7.794-13.263-18.77-13.263-30.933 0-23.584 19.119-42.703 42.703-42.703 11.421 0 21.795 4.483 29.457 11.786l-0.017-0.016 55.893 52.48v-241.493c0-23.564 19.103-42.667 42.667-42.667s42.667 19.103 42.667 42.667v0 238.507l55.040-55.467c7.733-7.795 18.45-12.621 30.293-12.621s22.56 4.826 30.291 12.618l0.003 0.003c7.795 7.733 12.621 18.45 12.621 30.293s-4.826 22.56-12.618 30.291l-0.003 0.003zM512 874.667c-235.641 0-426.667-191.025-426.667-426.667s191.025-426.667 426.667-426.667c235.641 0 426.667 191.025 426.667 426.667v0c0 235.641-191.025 426.667-426.667 426.667v0zM512 106.667c-188.513 0-341.333 152.82-341.333 341.333s152.82 341.333 341.333 341.333c188.513 0 341.333-152.82 341.333-341.333v0c0-188.513-152.82-341.333-341.333-341.333v0z" />
<glyph unicode="&#xe909;" glyph-name="arrow-ios-back" d="M590.080 149.333c-0.043 0-0.094 0-0.145 0-13.34 0-25.25 6.122-33.074 15.71l-0.061 0.077-206.080 256c-6.041 7.307-9.706 16.772-9.706 27.093s3.665 19.786 9.764 27.165l-0.058-0.072 213.333 256c7.891 9.447 19.676 15.413 32.853 15.413 23.594 0 42.72-19.126 42.72-42.72 0-10.416-3.728-19.961-9.922-27.374l0.055 0.068-190.72-228.693 184.32-228.693c6.15-7.342 9.885-16.89 9.885-27.31 0-23.564-19.103-42.667-42.667-42.667-0.175 0-0.35 0.001-0.525 0.003h0.027z" />
<glyph unicode="&#xe90a;" glyph-name="arrow-ios-downward" d="M512 277.333c-0.025 0-0.054 0-0.083 0-10.38 0-19.895 3.707-27.292 9.869l0.069-0.056-256 213.333c-9.447 7.891-15.413 19.676-15.413 32.853 0 23.594 19.126 42.72 42.72 42.72 10.416 0 19.961-3.728 27.374-9.922l-0.068 0.055 228.693-191.147 228.693 184.32c7.274 5.944 16.665 9.546 26.897 9.546 13.412 0 25.378-6.188 33.2-15.865l0.063-0.081c6.706-7.504 10.805-17.462 10.805-28.378 0-13.784-6.536-26.041-16.678-33.841l-0.101-0.074-256-206.080c-6.71-4.605-15.008-7.354-23.947-7.354-1.032 0-2.055 0.037-3.069 0.109l0.136-0.008z" />
<glyph unicode="&#xe90b;" glyph-name="arrow-ios-upward" d="M768 320c-0.025 0-0.054 0-0.083 0-10.38 0-19.895 3.707-27.292 9.869l0.069-0.056-228.693 191.147-229.12-184.32c-7.274-5.944-16.665-9.546-26.897-9.546-13.412 0-25.378 6.188-33.2 15.865l-0.063 0.081c-5.944 7.274-9.546 16.665-9.546 26.897 0 13.412 6.188 25.378 15.865 33.2l0.081 0.063 256 206.080c7.307 6.041 16.772 9.706 27.093 9.706s19.786-3.665 27.165-9.764l-0.072 0.058 256-213.333c9.459-7.882 15.435-19.666 15.435-32.846 0-10.422-3.736-19.971-9.943-27.38l0.054 0.067c-7.827-9.594-19.618-15.696-32.838-15.787h-0.015z" />
<glyph unicode="&#xe90c;" glyph-name="arrow-ios-forward" d="M426.667 149.333c-0.025 0-0.054 0-0.083 0-10.38 0-19.895 3.707-27.292 9.869l0.069-0.056c-9.459 7.882-15.435 19.666-15.435 32.846 0 10.422 3.736 19.971 9.943 27.38l-0.054-0.067 191.147 228.693-184.32 229.12c-5.944 7.274-9.546 16.665-9.546 26.897 0 13.412 6.188 25.378 15.865 33.2l0.081 0.063c7.476 6.603 17.36 10.634 28.184 10.634 13.896 0 26.241-6.643 34.032-16.928l0.077-0.107 206.080-256c6.041-7.307 9.706-16.772 9.706-27.093s-3.665-19.786-9.764-27.165l0.058 0.072-213.333-256c-7.882-9.46-19.667-15.437-32.848-15.437-0.902 0-1.798 0.028-2.687 0.083l0.122-0.006z" />
<glyph unicode="&#xe90d;" glyph-name="expand" d="M853.333 746.667c0 23.564-19.103 42.667-42.667 42.667h-213.333c-23.561-0.004-42.66-19.105-42.66-42.667s19.099-42.663 42.66-42.667h109.654l-139.947-140.373c-7.795-7.733-12.621-18.45-12.621-30.293s4.826-22.56 12.618-30.291l0.003-0.003c7.733-7.795 18.45-12.621 30.293-12.621s22.56 4.826 30.291 12.618l140.376 140.376v-110.080c0-23.564 19.103-42.667 42.667-42.667v0c23.564 0 42.667 19.103 42.667 42.667v0zM456.96 392.96c-7.733 7.795-18.45 12.621-30.293 12.621s-22.56-4.826-30.291-12.618l-0.003-0.003-140.373-139.947v109.653c0 23.564-19.103 42.667-42.667 42.667v0c-23.564 0-42.667-19.103-42.667-42.667v0-213.333c0-23.564 19.103-42.667 42.667-42.667h213.333c23.561 0.004 42.66 19.105 42.66 42.667s-19.099 42.663-42.66 42.667h-110.080l140.373 140.373c7.795 7.733 12.621 18.45 12.621 30.293s-4.826 22.56-12.618 30.291l-0.003 0.003z" />
<glyph unicode="&#xe90e;" glyph-name="collapse" d="M810.667 576h-110.080l140.373 140.373c7.753 7.753 12.548 18.463 12.548 30.293 0 23.661-19.181 42.841-42.841 42.841-11.83 0-22.541-4.795-30.293-12.548v0l-140.373-139.947v109.653c0 23.564-19.103 42.667-42.667 42.667v0c-23.564 0-42.667-19.103-42.667-42.667v0-213.333c0-23.564 19.103-42.667 42.667-42.667h213.333c23.561 0.004 42.66 19.105 42.66 42.667s-19.099 42.663-42.66 42.667v0zM426.667 405.333h-213.333c-23.561-0.004-42.66-19.105-42.66-42.667s19.099-42.663 42.66-42.667h109.654l-139.947-140.373c-7.795-7.733-12.621-18.45-12.621-30.293s4.826-22.56 12.618-30.291l0.003-0.003c7.733-7.795 18.45-12.621 30.293-12.621s22.56 4.826 30.291 12.618l140.376 140.376v-110.080c0-23.564 19.103-42.667 42.667-42.667v0c23.564 0 42.667 19.103 42.667 42.667v0 213.333c0 23.564-19.103 42.667-42.667 42.667v0z" />
<glyph unicode="&#xe90f;" glyph-name="move" d="M926.293 477.44l-128 128c-7.753 7.753-18.463 12.548-30.293 12.548-23.661 0-42.841-19.181-42.841-42.841 0-11.83 4.795-22.541 12.548-30.293v0l55.040-54.187h-238.080v238.507l55.040-55.467c7.709-7.648 18.326-12.374 30.047-12.374 0.087 0 0.173 0 0.26 0.001h-0.013c0.073 0 0.16-0.001 0.247-0.001 11.721 0 22.338 4.726 30.049 12.377l-0.003-0.003c7.795 7.733 12.621 18.45 12.621 30.293s-4.826 22.56-12.618 30.291l-128.003 128.003c-7.709 7.648-18.326 12.374-30.047 12.374-0.087 0-0.173 0-0.26-0.001h0.013c-11.656-0.051-22.2-4.767-29.869-12.376l-127.997-127.997c-7.789-7.736-12.611-18.452-12.611-30.293 0-23.577 19.113-42.691 42.691-42.691 11.736 0 22.365 4.735 30.082 12.4l55.038 55.038v-238.080h-238.507l55.467 55.040c7.753 7.753 12.548 18.463 12.548 30.293 0 23.661-19.181 42.841-42.841 42.841-11.83 0-22.541-4.795-30.293-12.548l-128-128c-7.648-7.709-12.374-18.326-12.374-30.047 0-0.087 0-0.173 0.001-0.26v0.013c0-0.073-0.001-0.16-0.001-0.247 0-11.721 4.726-22.338 12.377-30.049l127.997-127.997c7.709-7.648 18.326-12.374 30.047-12.374 0.087 0 0.173 0 0.26 0.001h-0.013c0.073 0 0.16-0.001 0.247-0.001 11.721 0 22.338 4.726 30.049 12.377l-0.003-0.003c7.795 7.733 12.621 18.45 12.621 30.293s-4.826 22.56-12.618 30.291l-55.043 55.043h238.080v-238.507l-55.040 55.467c-7.753 7.753-18.463 12.548-30.293 12.548-23.661 0-42.841-19.181-42.841-42.841 0-11.83 4.795-22.541 12.548-30.293l128-128c7.709-7.648 18.326-12.374 30.047-12.374 0.087 0 0.173 0 0.26 0.001h-0.013c11.656 0.051 22.2 4.767 29.869 12.376l127.997 127.997c7.753 7.753 12.548 18.463 12.548 30.293 0 23.661-19.181 42.841-42.841 42.841-11.83 0-22.541-4.795-30.293-12.548v0l-54.613-55.040v238.080h238.507l-55.467-55.040c-7.795-7.733-12.621-18.45-12.621-30.293s4.826-22.56 12.618-30.291l0.003-0.003c7.709-7.648 18.326-12.374 30.047-12.374 0.087 0 0.173 0 0.26 0.001h-0.013c0.073 0 0.16-0.001 0.247-0.001 11.721 0 22.338 4.726 30.049 12.377l127.997 127.997c7.648 7.709 12.374 18.326 12.374 30.047 0 0.087 0 0.173-0.001 0.26v-0.013c-0.17 11.5-4.863 21.872-12.376 29.443l0.003-0.003z" />
<glyph unicode="&#xe910;" glyph-name="arrow-circle-down-ou" d="M610.56 430.507l-55.893-53.333v241.493c0 23.564-19.103 42.667-42.667 42.667s-42.667-19.103-42.667-42.667v0-238.507l-55.040 55.467c-7.753 7.753-18.463 12.548-30.293 12.548-23.661 0-42.841-19.181-42.841-42.841 0-11.83 4.795-22.541 12.548-30.293l128-128c3.937-3.773 8.616-6.808 13.791-8.859l0.289-0.101c4.771-2.163 10.345-3.423 16.213-3.423s11.443 1.26 16.466 3.525l-0.253-0.102c2.631 1.075 4.891 2.514 6.846 4.284l-0.020-0.018c2.479 1.072 4.6 2.51 6.404 4.271l-0.004-0.004 128 122.027c8.178 7.794 13.263 18.77 13.263 30.933 0 23.584-19.119 42.703-42.703 42.703-11.421 0-21.795-4.483-29.457-11.786l0.017 0.016zM512 874.667c-235.641 0-426.667-191.025-426.667-426.667s191.025-426.667 426.667-426.667c235.641 0 426.667 191.025 426.667 426.667v0c0 235.641-191.025 426.667-426.667 426.667v0zM512 106.667c-188.513 0-341.333 152.82-341.333 341.333s152.82 341.333 341.333 341.333c188.513 0 341.333-152.82 341.333-341.333v0c0-188.513-152.82-341.333-341.333-341.333v0z" />
<glyph unicode="&#xe911;" glyph-name="arrow-circle-left-ou" d="M682.667 490.667h-241.493l53.333 55.893c7.287 7.645 11.77 18.019 11.77 29.44 0 23.584-19.119 42.703-42.703 42.703-12.164 0-23.139-5.085-30.917-13.246l-0.016-0.017-122.027-128c-1.338-1.628-2.607-3.44-3.731-5.347l-0.109-0.199c-1.886-2.326-3.467-5.004-4.62-7.899l-0.073-0.207c-1.426-3.52-2.347-7.596-2.557-11.859l-0.003-0.088-0.853-3.84c0.073-5.873 1.322-11.435 3.52-16.489l-0.107 0.275c2.2-5.299 5.227-9.831 8.968-13.662l127.992-127.992c7.733-7.795 18.45-12.621 30.293-12.621s22.56 4.826 30.291 12.618l0.003 0.003c7.795 7.733 12.621 18.45 12.621 30.293s-4.826 22.56-12.618 30.291l-0.003 0.003-55.467 54.613h238.507c23.564 0 42.667 19.103 42.667 42.667s-19.103 42.667-42.667 42.667v0zM512 874.667c-235.641 0-426.667-191.025-426.667-426.667s191.025-426.667 426.667-426.667c235.641 0 426.667 191.025 426.667 426.667v0c0 235.641-191.025 426.667-426.667 426.667v0zM512 106.667c-188.513 0-341.333 152.82-341.333 341.333s152.82 341.333 341.333 341.333c188.513 0 341.333-152.82 341.333-341.333v0c0-188.513-152.82-341.333-341.333-341.333v0z" />
<glyph unicode="&#xe912;" glyph-name="arrow-back" d="M810.667 490.667h-506.027l154.88 186.027c6.139 7.346 9.867 16.891 9.867 27.307 0 23.594-19.126 42.72-42.72 42.72-13.178 0-24.962-5.967-32.798-15.346l-0.055-0.068-213.333-256c-1.31-1.832-2.585-3.927-3.707-6.114l-0.133-0.286c0-2.133 0-3.413-2.987-5.547-1.85-4.547-2.943-9.82-2.987-15.343v-0.017c0.044-5.54 1.136-10.813 3.089-15.646l-0.102 0.286c0-2.133 0-3.413 2.987-5.547 1.255-2.473 2.53-4.568 3.945-6.556l-0.105 0.156 213.333-256c7.881-9.415 19.638-15.36 32.784-15.36 0.024 0 0.049 0 0.073 0h-0.004c0.025 0 0.054 0 0.083 0 10.38 0 19.895 3.707 27.292 9.869l-0.069-0.056c9.459 7.882 15.435 19.666 15.435 32.846 0 10.422-3.736 19.971-9.943 27.38l0.054-0.067-154.88 186.027h506.027c23.564 0 42.667 19.103 42.667 42.667s-19.103 42.667-42.667 42.667v0z" />
<glyph unicode="&#xe913;" glyph-name="arrow-forward" d="M213.333 405.333h506.027l-154.88-186.027c-6.139-7.346-9.867-16.891-9.867-27.307 0-23.594 19.126-42.72 42.72-42.72 13.178 0 24.962 5.967 32.798 15.346l0.055 0.068 213.333 256c1.31 1.832 2.585 3.927 3.707 6.114l0.133 0.286c0 2.133 2.133 3.413 2.987 5.547 1.85 4.547 2.943 9.82 2.987 15.343v0.017c-0.044 5.54-1.136 10.813-3.089 15.646l0.102-0.286c0 2.133-2.133 3.413-2.987 5.547-1.255 2.473-2.53 4.568-3.945 6.556l0.105-0.156-213.333 256c-7.881 9.415-19.638 15.36-32.784 15.36-0.024 0-0.049 0-0.073 0h0.004c-0.025 0-0.054 0-0.083 0-10.38 0-19.895-3.707-27.292-9.869l0.069 0.056c-9.459-7.882-15.435-19.666-15.435-32.846 0-10.422 3.736-19.971 9.943-27.38l-0.054 0.067 154.88-186.027h-506.027c-23.564 0-42.667-19.103-42.667-42.667s19.103-42.667 42.667-42.667v0z" />
<glyph unicode="&#xe914;" glyph-name="shield-success" d="M883.755 680.619l-362.667 170.667c-2.658 1.303-5.784 2.065-9.088 2.065s-6.43-0.762-9.213-2.119l0.125 0.055-362.667-170.667c-7.296-3.488-12.245-10.81-12.245-19.287 0-0.007 0-0.014 0-0.021v0.001c0-475.776 346.603-618.667 384-618.667s384 142.891 384 618.667c0 0.006 0 0.013 0 0.019 0 8.478-4.95 15.799-12.117 19.232l-0.128 0.055zM513.579 85.248c-3.392 0.491-336.341 106.667-342.827 562.56l341.248 160.619 341.227-160.576c-6.464-455.915-339.371-562.091-339.627-562.581zM420.416 484.395c-3.832 3.705-9.060 5.989-14.821 5.989-11.782 0-21.333-9.551-21.333-21.333 0-5.761 2.283-10.988 5.994-14.827l85.327-85.327c3.862-3.849 9.19-6.229 15.075-6.229 0.003 0 0.006 0 0.008 0h0.704c6.133 0.217 11.579 2.986 15.339 7.272l149.354 170.691c3.277 3.732 5.276 8.657 5.276 14.048 0 11.786-9.554 21.34-21.34 21.34-6.394 0-12.132-2.812-16.043-7.268l-134.336-153.539z" />
<glyph unicode="&#xe915;" glyph-name="shield-error" d="M926 744.827l-384 170.667c-2.549 1.162-5.529 1.84-8.667 1.84s-6.118-0.677-8.801-1.894l0.134 0.054-384-170.667c-7.525-3.406-12.667-10.849-12.667-19.493v0-217.813c0-219.867 129.373-419.020 329.6-507.333 32.793-14.467 57.567-21.5 75.733-21.5s42.94 7.033 75.733 21.5c200.227 88.333 329.6 287.487 329.6 507.333v217.813c0 8.644-5.141 16.087-12.533 19.439l-0.134 0.054zM896 507.493c0-202.973-119.387-386.8-304.153-468.313-35.247-15.527-51.787-17.847-58.513-17.847s-23.267 2.32-58.513 17.873c-184.767 81.513-304.153 265.34-304.153 468.313v203.947l362.667 161.2 362.667-161.2zM533.333 499.493l112.913 112.927c3.861 3.861 9.195 6.249 15.087 6.249 11.783 0 21.336-9.552 21.336-21.336 0-5.892-2.388-11.226-6.249-15.087l-112.92-112.913 112.92-112.913c3.861-3.861 6.249-9.195 6.249-15.087 0-11.783-9.552-21.336-21.336-21.336-5.892 0-11.226 2.388-15.087 6.249l-112.913 112.92-112.913-112.92c-3.861-3.861-9.195-6.249-15.087-6.249-11.783 0-21.336 9.552-21.336 21.336 0 5.892 2.388 11.226 6.249 15.087l112.92 112.913-112.92 112.913c-3.861 3.861-6.249 9.195-6.249 15.087 0 11.783 9.552 21.336 21.336 21.336 5.892 0 11.226-2.388 15.087-6.249v0z" />
<glyph unicode="&#xe916;" glyph-name="share-1" d="M814.933 59.733h-637.867c-46.933 0-85.333 38.4-85.333 85.333v597.333c0 46.933 38.4 85.333 85.333 85.333h458.667c12.8 0 21.333-8.533 21.333-21.333s-8.533-21.333-21.333-21.333h-458.667c-23.467 0-42.667-19.2-42.667-42.667v-597.333c0-23.467 19.2-42.667 42.667-42.667h637.867c23.467 0 42.667 19.2 42.667 42.667v204.8c0 12.8 8.533 21.333 21.333 21.333s21.333-8.533 21.333-21.333v-204.8c0-46.933-38.4-85.333-85.333-85.333zM953.6 620.8c-6.4 0-12.8 2.133-17.067 6.4l-151.467 172.8c-8.533 8.533-6.4 21.333 2.133 29.867s21.333 6.4 29.867-2.133l151.467-172.8c8.533-8.533 6.4-21.333-2.133-29.867-4.267-2.133-8.533-4.267-12.8-4.267zM802.133 448c-4.267 0-10.667 2.133-14.933 4.267-8.533 8.533-10.667 21.333-2.133 29.867l151.467 172.8c8.533 8.533 21.333 10.667 29.867 2.133s10.667-21.333 2.133-29.867l-151.467-172.8c-2.133-4.267-8.533-6.4-14.933-6.4zM514.133 407.467c-2.133 0-6.4 0-8.533 2.133-10.667 4.267-14.933 17.067-10.667 27.733 59.733 145.067 202.667 238.933 358.4 238.933 29.867 0 59.733-4.267 87.467-10.667 10.667-2.133 19.2-14.933 17.067-25.6s-14.933-19.2-25.6-17.067c-25.6 6.4-51.2 8.533-78.933 8.533-140.8 0-266.667-83.2-322.133-211.2-2.133-6.4-10.667-12.8-17.067-12.8zM452.267 309.333c0-17.673 14.327-32 32-32s32 14.327 32 32v0c0 17.673-14.327 32-32 32s-32-14.327-32-32v0z" />
<glyph unicode="&#xe917;" glyph-name="share" d="M724.787-2c-97.951 0-177.631 79.68-177.631 177.631 0 97.953 79.68 177.633 177.631 177.633s177.632-79.68 177.632-177.633c0-97.951-79.68-177.631-177.632-177.631zM724.787 282.211c-58.771 0-106.578-47.809-106.578-106.58 0-58.77 47.807-106.578 106.578-106.578s106.579 47.809 106.579 106.578c0 58.771-47.807 106.58-106.579 106.58zM299.211 258.527c-97.951 0-177.631 79.68-177.631 177.631 0 97.952 79.68 177.631 177.631 177.631 97.953 0 177.633-79.68 177.633-177.631s-79.68-177.631-177.633-177.631zM299.211 542.737c-58.771 0-106.578-47.808-106.578-106.579s47.808-106.578 106.578-106.578c58.771 0 106.58 47.807 106.58 106.578s-47.809 106.579-106.58 106.579zM724.787 542.737c-97.951 0-177.631 79.68-177.631 177.631s79.68 177.632 177.631 177.632c97.952 0 177.632-79.68 177.632-177.632s-79.68-177.631-177.632-177.631zM724.787 826.948c-58.771 0-106.578-47.808-106.578-106.579s47.807-106.579 106.578-106.579 106.579 47.808 106.579 106.579-47.807 106.579-106.579 106.579zM587.297 216.57l-188.988 118.422 37.722 60.227 188.989-118.42zM591.103 648.563l35.385-61.618-193.392-111.057-35.385 61.618z" />
<glyph unicode="&#xe918;" glyph-name="log" horiz-adv-x="1152" d="M352 774.4h704c38.4 0 64 25.6 64 64s-25.6 64-64 64h-704c-38.4 0-64-25.6-64-64s25.6-64 64-64zM32 838.4c0-35.346 28.654-64 64-64s64 28.654 64 64v0c0 35.346-28.654 64-64 64s-64-28.654-64-64v0zM1056 518.4h-704c-38.4 0-64-25.6-64-64s25.6-64 64-64h704c38.4 0 64 25.6 64 64s-25.6 64-64 64zM32 454.4c0-35.346 28.654-64 64-64s64 28.654 64 64v0c0 35.346-28.654 64-64 64s-64-28.654-64-64v0zM1056 134.4h-704c-38.4 0-64-25.6-64-64s25.6-64 64-64h704c38.4 0 64 25.6 64 64s-25.6 64-64 64zM32 70.4c0-35.346 28.654-64 64-64s64 28.654 64 64v0c0 35.346-28.654 64-64 64s-64-28.654-64-64v0z" />
<glyph unicode="&#xe919;" glyph-name="dashboard" d="M382.371 386.663h-314.703c-37.714 0-68.571-30.857-68.571-68.571v-312.84c0-37.714 30.857-68.571 68.571-68.571h314.702c37.714 0 68.571 30.857 68.571 68.571v312.84c0.001 37.714-30.856 68.571-68.57 68.571zM382.371 5.374c-0.038-0.045-0.078-0.085-0.121-0.121l-0.001-0.001h-314.457c-0.045 0.038-0.085 0.078-0.121 0.121l-0.001 0.001v312.594c0.038 0.045 0.078 0.085 0.121 0.121l0.001 0.001 314.456 0.001c0.042-0.035 0.087-0.080 0.123-0.123v-312.594zM954.526 960.227h-314.786c-37.714 0-68.571-30.857-68.571-68.571v-312.84c0-37.714 30.857-68.571 68.571-68.571h314.786c37.714 0 68.571 30.857 68.571 68.571v312.84c0 37.714-30.857 68.571-68.571 68.571zM954.527 578.938c-0.038-0.045-0.078-0.085-0.121-0.121l-0.001-0.001h-314.542c-0.045 0.038-0.085 0.078-0.121 0.121l-0.001 0.001v312.594c0.038 0.045 0.078 0.085 0.121 0.121l0.001 0.001 314.541 0.001c0.042-0.035 0.087-0.080 0.123-0.123v-312.594zM382.456 960.227h-314.787c-37.714 0-68.571-30.857-68.571-68.571v-312.84c0-37.714 30.857-68.571 68.571-68.571h314.786c37.714 0 68.571 30.857 68.571 68.571v312.84c0.001 37.714-30.856 68.571-68.57 68.571zM382.456 578.938c-0.038-0.045-0.078-0.085-0.121-0.121l-0.001-0.001h-314.542c-0.045 0.038-0.085 0.078-0.121 0.121l-0.001 0.001v312.594c0.038 0.045 0.078 0.085 0.121 0.121l0.001 0.001 314.541 0.001c0.042-0.035 0.087-0.080 0.123-0.123v-312.594zM954.526 386.313h-313.143c-37.714 0-68.571-30.843-68.571-68.541v-313.005c0-37.697 30.857-68.541 68.571-68.541h205.714c18.857 0 34.286 15.422 34.286 34.271s-15.429 34.271-34.286 34.271h-205.714v313.003h313.143v-209.050c0-18.849 15.429-34.271 34.286-34.271s34.286 15.422 34.286 34.271v209.050c0 37.697-30.857 68.541-68.571 68.541z" />
<glyph unicode="&#xe91a;" glyph-name="active" d="M512 149.333c-164.693 0-298.667 134.016-298.667 298.667s133.973 298.667 298.667 298.667c164.651 0 298.667-134.016 298.667-298.667s-134.016-298.667-298.667-298.667zM512 706.816c-142.72 0-258.859-116.096-258.859-258.816s116.139-258.816 258.859-258.816c142.763 0 258.816 116.181 258.816 258.816 0 142.763-116.053 258.816-258.816 258.816zM682.667 448c0-94.257-76.41-170.667-170.667-170.667s-170.667 76.41-170.667 170.667c0 94.257 76.41 170.667 170.667 170.667s170.667-76.41 170.667-170.667z" />
<glyph unicode="&#xe91b;" glyph-name="active-1" d="M546.957 59.557s-0.518 0 0 0c-22.062 0.083-40.691 14.678-46.845 34.732l-0.092 0.347-151.683 508.179-71.712-218.245c-6.626-19.638-24.878-33.527-46.374-33.527-0.025 0-0.049 0-0.074 0h-152.199c-0.008 0-0.015 0-0.024 0-27.053 0-48.984 21.931-48.984 48.984 0 0.009 0 0.016 0 0.026v-0.001c0.166 27 22.008 48.842 48.993 49.008h116.619l109.9 333.296c6.705 20.116 26.304 33.009 47.48 33.527 21.79-0.498 40.077-14.939 46.324-34.728l0.096-0.353 149.613-502.533 113.498 370.965c6.168 19.381 23.491 33.389 44.245 34.556l0.129 0.007c20.634 0.518 39.715-10.823 47.456-29.927l85.666-205.352h121.263c26.822 0 49.008-22.162 49.008-49.008s-21.67-49.008-49.008-49.008h-153.756c-20.222 0.085-37.588 12.23-45.284 29.611l-0.126 0.318-46.42 109.9-121.263-396.751c-6.625-19.758-24.865-33.785-46.417-34.020h-0.027z" />
<glyph unicode="&#xe91c;" glyph-name="add" d="M863.328 477.44l-317.344 1.12v318.624c0 17.664-14.336 32-32 32s-32-14.336-32-32v-318.4l-322.368 1.152c-0.032 0-0.064 0-0.096 0-17.632 0-31.936-14.24-32-31.904-0.096-17.664 14.208-32.032 31.872-32.096l322.592-1.152v-319.168c0-17.696 14.336-32 32-32s32 14.304 32 32v318.944l317.088-1.12c0.064 0 0.096 0 0.128 0 17.632 0 31.936 14.24 32 31.904s-14.24 32.032-31.872 32.096z" />
<glyph unicode="&#xe91d;" glyph-name="add-1" d="M239.852 720.148c-148.334-148.334-148.334-392.369 0-540.704s392.369-148.334 540.704 0c148.334 148.334 148.334 392.369 0 540.704s-387.584 148.334-540.704 0v0zM747.062 212.938c-133.98-133.98-339.735-133.98-473.716 0s-133.98 339.735 0 473.716c133.98 133.98 339.735 133.98 473.716 0s133.98-344.521 0-473.716v0zM536.524 471.327v191.401c0 14.354-9.57 23.926-23.926 23.926s-23.926-9.57-23.926-23.926v-191.401h-191.401c-9.57 0-19.14-9.57-19.14-23.926s9.57-23.926 23.926-23.926h191.401v-191.401c0-14.354 9.57-23.926 23.926-23.926s23.926 9.57 23.926 23.926v191.401h191.401c14.354 0 23.926 9.57 23.926 23.926s-9.57 23.926-23.926 23.926h-196.186z" />
<glyph unicode="&#xe91e;" glyph-name="alert" d="M512 704c36.267 0 64 27.733 64 64s-27.733 64-64 64-64-27.733-64-64 27.733-64 64-64zM512 618.667c-36.267 0-64-27.733-64-64v-426.667c0-36.267 27.733-64 64-64s64 27.733 64 64v426.667c0 36.267-27.733 64-64 64z" />
<glyph unicode="&#xe91f;" glyph-name="alert-1" d="M538.454 280.462c0-14.99-11.464-26.454-26.454-26.454s-26.454 11.464-26.454 26.454 11.464 26.454 26.454 26.454 26.454-11.464 26.454-26.454zM512 641.992c-14.99 0-26.454-11.464-26.454-26.454v-255.716c0-14.108 11.464-26.454 26.454-26.454s26.454 11.464 26.454 26.454v255.716c0 14.108-11.464 26.454-26.454 26.454zM908.8 448c0-218.68-178.12-396.8-396.8-396.8s-396.8 178.12-396.8 396.8 178.12 396.8 396.8 396.8 396.8-178.12 396.8-396.8zM873.528 448c0 199.282-162.248 361.528-361.528 361.528s-361.528-162.248-361.528-361.528 162.248-361.528 361.528-361.528 361.528 162.248 361.528 361.528z" />
<glyph unicode="&#xe920;" glyph-name="signup" d="M385.146 784.524c46.034 19.562 94.878 29.517 145.244 29.517 146.181 0 279.48-86.327 339.686-219.858 6.443-14.173 20.499-22.724 35.14-22.724 5.389 0 10.66 1.172 15.812 3.398 19.444 8.784 27.996 31.626 19.327 51.070-72.506 161.058-233.564 265.19-409.965 265.19-60.791 0-119.826-12.064-175.466-35.608-19.562-8.317-28.698-30.924-20.381-50.601s31.041-28.815 50.601-20.381zM979.947 445.424v7.145c0 1.639-0.117 3.398-0.352 5.037-0.352 7.73-0.702 15.462-1.406 23.075-1.874 21.201-20.499 36.897-41.699 35.14-21.201-1.874-36.897-20.499-35.14-41.699 0.702-9.136 1.289-18.273 1.406-27.526-1.172-119.124-36.78-234.149-103.077-332.774-11.947-17.688-7.145-41.582 10.543-53.529 6.56-4.334 14.173-6.56 21.435-6.56 12.416 0 24.598 5.974 32.094 16.984 73.090 108.816 113.033 235.438 115.961 366.509 0.117 1.406 0.235 2.693 0.235 4.217v3.982zM296.241 451.515c2.109 85.39 48.142 164.688 120.178 206.74 18.39 10.775 24.598 34.437 13.821 52.709-10.775 18.39-34.437 24.598-52.709 13.821-46.151-26.941-85.155-65.828-112.916-112.448-26.824-45.097-42.284-96.4-45.214-149.111-0.937-3.398-1.406-7.028-1.406-10.66 0-76.136-32.68-148.876-89.959-199.712-15.929-14.173-17.336-38.536-3.163-54.468 7.615-8.551 18.155-13.001 28.815-13.001 9.136 0 18.273 3.28 25.652 9.721 71.099 63.252 112.916 153.093 115.61 247.737 0.702 2.693 1.289 5.621 1.289 8.667zM773.207 260.822c-19.562 8.317-42.284-0.702-50.601-20.264-27.057-63.487-65.711-120.53-114.672-169.725-15.11-15.11-14.992-39.473 0.117-54.583 7.497-7.497 17.336-11.245 27.174-11.245 9.956 0 19.796 3.748 27.292 11.362 55.989 56.107 99.915 121.35 130.954 193.856 8.317 19.562-0.702 42.169-20.264 50.601zM748.022 314.351c-5.389-20.616 6.793-41.699 27.409-47.205 3.398-0.82 6.56-1.289 9.838-1.289 16.984 0 32.68 11.362 37.247 28.698 12.416 47.088 19.21 95.815 20.264 144.777 0.352 1.874 0.469 3.748 0.469 5.739 0 177.105-139.975 321.297-312.043 321.297-21.318 0-38.536-17.218-38.536-38.536s17.218-38.536 38.536-38.536c126.504 0 229.931-104.366 234.735-234.501 0-0.702-0.117-1.406-0.117-2.226 0-46.853-5.974-93.354-17.805-138.216zM705.386 427.619c1.639 4.334 2.576 9.019 2.576 13.821 0 98.743-78.831 178.861-175.816 178.861-46.268 0-90.076-18.155-123.106-51.188-27.644-27.526-45.214-62.783-50.836-101.086-2.109-4.802-3.28-10.073-3.28-15.579 0-44.862-8.784-88.435-25.887-129.432-8.317-19.679 1.054-42.284 20.616-50.483 4.919-2.109 9.956-3.045 14.992-3.045 15.11 0 29.4 8.902 35.491 23.661 18.742 44.627 29.283 91.715 31.626 140.090 1.054 3.398 1.756 7.028 1.756 10.775 1.406 54.701 45.564 99.095 98.743 99.095 48.727 0 89.137-36.545 97.221-84.335-0.352-2.109-0.469-4.217-0.469-6.326 0-145.011-65.478-280.065-179.565-370.491-16.751-13.236-19.444-37.482-6.326-54.116 7.615-9.606 18.975-14.642 30.22-14.642 8.317 0 16.866 2.693 23.896 8.317 63.604 50.368 116.196 115.377 152.039 187.765 33.969 68.641 52.827 142.083 56.107 218.337zM569.044 452.569c0 21.318-17.218 38.536-38.536 38.536s-38.536-17.218-38.536-38.536c0-130.721-63.954-254.178-171.131-330.081-17.336-12.299-21.435-36.428-9.254-53.764 7.497-10.543 19.444-16.281 31.509-16.281 7.73 0 15.462 2.343 22.255 7.145 61.612 43.573 112.681 101.788 147.939 168.321 36.428 68.757 55.755 146.416 55.755 224.66zM355.628 213.382c12.299 17.336 8.317 41.347-9.019 53.764-17.336 12.299-41.347 8.317-53.764-9.019-21.318-29.87-47.205-55.989-76.84-77.425-17.218-12.534-20.966-36.545-8.551-53.881 7.497-10.308 19.327-15.929 31.274-15.929 7.847 0 15.812 2.461 22.607 7.263 36.428 26.589 68.171 58.566 94.291 95.229zM158.14 455.263c2.928 79.651 30.689 154.732 80.236 217.4 13.236 16.751 10.425 40.88-6.326 54.116s-40.88 10.425-54.116-6.326c-61.026-76.84-94.643-169.375-97.104-267.531 0-1.523 0-3.045 0.117-4.452-0.702-36.663-11.48-72.388-31.391-103.195-11.48-17.921-6.326-41.699 11.597-53.296 6.443-4.217 13.705-6.208 20.851-6.208 12.651 0 25.066 6.326 32.563 17.688 28.463 44.393 43.69 95.932 43.69 148.876 0 1.054 0 1.991-0.117 2.928z" />
<glyph unicode="&#xe921;" glyph-name="update-1" d="M512 960c-282.784 0-512-229.216-512-512 0-282.768 229.216-512 512-512 282.752 0 512 229.232 512 512 0 282.784-229.248 512-512 512zM512-32c-265.104 0-480 214.912-480 480 0 265.104 214.896 480 480 480 265.056 0 480-214.896 480-480 0-265.088-214.944-480-480-480zM790.816 392.352c-9.104 0-16.496-7.392-16.496-16.48-31.536-115.36-136.784-200.256-262.128-200.256-114.192 0-211.52 70.592-251.792 170.336l52.912-24.672c8.016-3.728 17.536-0.272 21.264 7.728 3.728 8.016 0.288 17.536-7.728 21.28l-85.536 39.872c-2.224 1.216-4.656 2.032-7.328 2.112-0.112 0-0.224 0.064-0.336 0.064-0.016 0-0.048 0.016-0.064 0.016-0.208 0-0.368-0.112-0.576-0.128-5.984-0.032-11.728-3.344-14.416-9.12l-40.56-87.008c-3.744-8.016-0.288-17.536 7.712-21.264s17.536-0.272 21.28 7.728l23.824 51.12c45.072-111.36 153.824-190.096 281.344-190.096 143.12 0 262.832 99.024 295.104 232.256 0.016 9.136-7.376 16.528-16.48 16.512zM838.272 621.152c-7.984 3.728-17.536 0.288-21.264-7.744l-23.632-50.672c-45.184 111.12-153.824 189.648-281.184 189.648-143.12 0-262.816-99.024-295.12-232.24 0-9.104 7.376-16.496 16.496-16.496s16.512 7.392 16.496 16.496c31.536 115.328 136.784 200.24 262.112 200.24 114.288 0 211.664-70.704 251.904-170.56l-53.408 24.912c-8.016 3.728-17.52 0.272-21.264-7.728-3.712-8.016-0.272-17.536 7.744-21.264l86.736-40.448c1.312-0.608 2.768-0.832 4.224-1.072 0.848-0.16 1.648-0.48 2.464-0.496 0.080 0 0.144-0.048 0.224-0.048 0.64 0 1.184 0.304 1.792 0.352 1.456 0.16 2.88 0.32 4.224 0.864 0.96 0.368 1.712 0.992 2.56 1.552 0.864 0.544 1.76 0.992 2.512 1.68 1.888 1.744 3.328 3.872 4.256 6.336l39.84 85.472c3.744 7.968 0.304 17.488-7.712 21.216z" />
<glyph unicode="&#xe922;" glyph-name="update" d="M302.545 843.636h409.6c15.422 0.003 27.922 12.505 27.922 27.927s-12.5 27.924-27.922 27.927h-409.6c-0.002 0-0.003 0-0.005 0-15.424 0-27.927-12.503-27.927-27.927s12.503-27.927 27.927-27.927c0.002 0 0.004 0 0.006 0v0zM209.455 741.236h595.782c15.422 0.003 27.922 12.505 27.922 27.927s-12.5 27.924-27.922 27.927h-595.782c-0.002 0-0.003 0-0.005 0-15.424 0-27.927-12.503-27.927-27.927s12.503-27.927 27.927-27.927c0.002 0 0.004 0 0.006 0v0zM879.709 685.382h-735.418c-51.414 0-93.091-41.686-93.091-93.091v-512c0-51.414 41.677-93.091 93.091-93.091h735.418c51.414 0 93.091 41.677 93.091 93.091v512c0 51.405-41.677 93.091-93.091 93.091zM916.945 91.052c0-25.706-20.839-46.545-46.545-46.545v0h-716.8c-25.706 0-46.545 20.839-46.545 46.545v0 482.621c0 25.706 20.839 46.545 46.545 46.545v0h716.8c25.706 0 46.545-20.839 46.545-46.545v0-482.621zM602.177 437.378l-68.915 64.475c-0.375 0.544-0.843 0.995-1.386 1.338l-0.019 0.012c-0.417 0.424-0.874 0.807-1.365 1.143l-0.031 0.020c-0.864 0.694-1.857 1.28-2.928 1.713l-0.079 0.028c-0.996 0.577-1.797 0.773-2.802 1.164-0.605 0.195-1.201 0.391-2.011 0.577-0.391 0-0.586 0.195-0.996 0.195-2.197 0.577-4.012 0.577-5.008 0.577h-0.4c-0.996 0-3.007 0-5.409-0.577-0.4 0-0.596-0.195-0.996-0.195-0.4-0.195-1.005-0.195-1.406-0.391-1.152-0.317-2.151-0.714-3.093-1.204l0.086 0.041c-0.195 0-0.195-0.195-0.4-0.195 0-0.195-0.195-0.195-0.195-0.195-1.201-0.577-2.607-1.35-3.612-2.122l-0.195-0.195c-0.945-0.421-1.745-1.009-2.396-1.734l-0.006-0.006-67.314-64.661c-4.803-4.45-7.615-10.426-7.615-16.794-0.195-6.377 2.607-12.744 7.215-17.371s10.826-7.336 17.436-7.336 13.219 2.513 18.032 7.149l24.641 23.738v-266.268c0-13.312 11.227-24.129 25.041-24.129s25.041 10.817 25.041 24.129v267.245l26.047-24.52c4.608-4.627 10.817-6.954 17.641-6.954 6.796 0 13.014 2.513 17.836 7.149l0.186 0.195c9.616 9.644 9.421 24.511-0.4 33.773l-0.223 0.186z" />
<glyph unicode="&#xe923;" glyph-name="alert-2" d="M881.231 137.846h-132.923v295.385c0 129.969-106.338 236.308-236.308 236.308s-236.308-106.338-236.308-236.308v-295.385h-132.923c-16.246 0-29.538-13.292-29.538-29.538s13.292-29.538 29.538-29.538h738.462c16.246 0 29.538 13.292 29.538 29.538s-13.292 29.538-29.538 29.538zM334.769 137.846v295.385c0 97.477 79.754 177.231 177.231 177.231s177.231-79.754 177.231-177.231v-295.385h-354.462zM423.385 433.231c-16.246 0-29.538-13.292-29.538-29.538v-177.231c0-16.246 13.292-29.538 29.538-29.538s29.538 13.292 29.538 29.538v177.231c0 16.246-13.292 29.538-29.538 29.538zM512 728.615c16.246 0 29.538 13.292 29.538 29.538v59.077c0 16.246-13.292 29.538-29.538 29.538s-29.538-13.292-29.538-29.538v-59.077c0-16.246 13.292-29.538 29.538-29.538zM736.492 668.062l41.354 41.354c11.815 11.815 11.815 29.538 0 41.354s-29.538 11.815-41.354 0l-41.354-41.354c-11.815-11.815-11.815-29.538 0-41.354s31.015-11.815 41.354 0zM293.415 668.062c11.815-11.815 29.538-11.815 41.354 0s11.815 29.538 0 41.354l-41.354 41.354c-11.815 11.815-29.538 11.815-41.354 0s-11.815-29.538 0-41.354l41.354-41.354zM142.769 477.538h59.077c16.246 0 29.538 13.292 29.538 29.538s-13.292 29.538-29.538 29.538h-59.077c-16.246 0-29.538-13.292-29.538-29.538s13.292-29.538 29.538-29.538zM822.154 477.538h59.077c16.246 0 29.538 13.292 29.538 29.538s-13.292 29.538-29.538 29.538h-59.077c-16.246 0-29.538-13.292-29.538-29.538s13.292-29.538 29.538-29.538z" />
<glyph unicode="&#xe924;" glyph-name="atom" d="M862.464 631.040c21.194-47.471 33.536-102.871 33.536-161.154 0-0.194 0-0.389 0-0.583v0.030c0-223.859-181.474-405.333-405.333-405.333s-405.333 181.474-405.333 405.333c0 223.859 181.474 405.333 405.333 405.333v0c57.472 0 112.171-11.947 161.707-33.536-22.595-18.489-39.54-43.101-48.355-71.303l-0.285-1.059c-33.558 13.055-72.401 20.62-113.012 20.62-176.731 0-320-143.269-320-320s143.269-320 320-320c176.731 0 320 143.269 320 320 0 40.611-7.565 79.454-21.363 115.199l0.742-2.187c29.262 9.1 53.874 26.045 72.152 48.375l0.211 0.265zM746.667 618.667c-0.003 0-0.007 0-0.010 0-58.91 0-106.667 47.756-106.667 106.667s47.756 106.667 106.667 106.667c0.004 0 0.007 0 0.011 0h-0.001c58.906-0.006 106.656-47.76 106.656-106.667s-47.75-106.661-106.656-106.667h-0.001zM640 469.333c0-82.475-66.859-149.333-149.333-149.333s-149.333 66.859-149.333 149.333v0c0 82.475 66.859 149.333 149.333 149.333s149.333-66.859 149.333-149.333v0zM426.667 469.333c0-35.346 28.654-64 64-64s64 28.654 64 64v0c0 35.346-28.654 64-64 64s-64-28.654-64-64v0z" />
<glyph unicode="&#xe925;" glyph-name="atom-1" d="M892.38 447.696c40.060 44.444 68.762 88.216 85.496 130.26 19.326 48.795 18.622 91.159-2.048 125.876-20.766 34.781-58.81 56.571-112.981 64.73-46.492 7.039-100.439 5.216-160.913-5.439-20.030 55.515-45.212 101.207-74.905 135.955-34.589 40.444-73.401 60.922-115.253 60.922-41.98 0-80.76-20.606-115.317-61.274-29.725-34.941-54.683-80.664-74.329-136.051-60.506 11.007-114.421 12.927-160.913 5.919-54.171-8.191-92.183-29.981-113.013-64.794-20.67-34.717-21.374-77.049-2.048-125.844 16.638-41.948 45.5-85.688 85.912-130.196-40.38-44.604-69.146-88.28-85.592-130.036-19.198-48.635-18.366-90.871 2.368-125.492 20.702-34.781 58.619-56.667 112.597-65.018 46.332-7.231 100.247-5.375 160.721 5.599 19.966-55.323 44.988-100.983 74.553-135.827 34.365-40.476 73.049-60.954 115.061-60.954 41.884 0 80.664 20.51 115.253 60.922 29.661 34.717 54.811 80.504 74.841 136.243 60.474-11.519 114.229-13.727 160.433-6.527 53.723 8.351 91.703 30.141 112.981 65.018 20.702 34.717 21.406 77.049 2.016 125.876-16.638 41.82-45.148 85.56-84.92 130.132zM443.014 38.326c-21.598 27.549-40.22 64.41-55.451 109.59 41.98 11.423 83.832 25.95 124.692 43.324 41.020-17.598 82.808-32.125 124.66-43.324-15.487-45.084-34.333-81.88-56.155-109.494-44.572-56.539-93.495-56.539-137.747-0.096zM580.73 857.418c21.79-27.805 40.668-64.698 56.155-109.814-39.004-10.527-80.76-24.894-124.628-42.94-42.588 17.342-84.6 31.997-125.204 43.58 15.487 44.668 34.269 81.368 55.963 109.174 44.316 56.795 93.143 56.795 137.715 0zM751.498 486.284c17.054-13.375 32.637-26.334 46.556-38.78-9.471-8.735-19.358-17.406-29.565-25.79-5.599-4.576-11.263-9.183-16.99-13.855 0.544 14.079 0.768 27.581 0.768 40.38 0.032 11.679-0.224 24.414-0.768 38.044zM744.586 575.396c-5.024 43.932-12.991 86.072-23.71 125.652 48.571 9.567 91.351 12.383 127.316 8.319 36.701-4.128 61.306-16.126 73.049-35.453 11.999-20.126 10.687-45.852-4.064-78.617-14.239-31.805-38.204-65.786-71.353-101.175-31.325 28.669-65.242 55.931-101.239 81.272zM512.288 264.481c-28.829 12.799-57.499 27.261-85.208 42.94-31.613 18.11-58.651 34.685-80.504 49.275-2.4 26.654-3.616 57.435-3.616 91.575 0 34.109 1.216 64.666 3.584 90.999 23.678 15.455 51.067 32.061 81.272 49.147 27.197 14.783 55.547 29.021 84.44 42.396 28.797-13.503 57.179-27.709 84.12-42.14 28.349-16.286 55.739-32.733 81.624-49.083 2.4-26.877 3.584-57.531 3.584-91.319 0-34.141-1.184-65.082-3.584-92.055-23.998-15.743-51.163-32.125-81.016-48.827-26.781-15.359-55.195-29.789-84.696-42.908zM631.541 646.461c-10.623 5.983-22.462 12.319-35.389 19.038 20.478 7.455 40.252 14.015 59.098 19.582 4.64-19.454 8.639-39.196 11.935-59.002-11.391 6.815-23.294 13.631-35.645 20.382zM369.197 684.922c19.198-5.823 38.652-12.351 58.267-19.518-12.159-6.143-23.806-12.479-34.877-18.846-12.383-6.815-24.286-13.599-35.581-20.382 3.456 19.998 7.519 39.676 12.191 58.746zM273.078 408.372c-17.214 13.215-32.957 26.366-47.164 39.324 14.463 13.023 30.141 25.982 46.972 38.78-0.416-12.479-0.608-25.15-0.608-38.172 0.032-13.791 0.288-27.133 0.8-39.932zM303.316 702.008c-10.719-40.764-18.558-82.904-23.326-125.556-37.117-26.43-71.257-54.043-101.782-82.264-33.149 35.325-57.211 69.306-71.673 101.207-14.815 32.669-16.062 58.299-3.744 78.393 11.999 19.742 35.901 31.453 73.113 35.837 11.263 1.312 23.294 1.984 35.741 1.984 27.485 0 58.267-3.232 91.671-9.599zM106.854 300.222c14.303 31.901 38.108 65.85 70.841 101.047 30.845-28.573 65.146-56.347 102.262-82.744 4.768-42.556 12.607-84.184 23.294-124.084-48.507-9.535-91.255-12.351-127.156-8.351-36.925 4.192-60.73 15.967-72.857 36.285-12.255 19.678-11.071 45.116 3.616 77.849zM391.531 249.795c11.135-6.623 23.23-13.215 36.189-19.806-20.254-7.455-39.932-13.919-58.842-19.294-4.64 19.39-8.543 38.876-11.711 58.267 11.455-6.815 22.974-13.247 34.365-19.166zM655.283 210.63c-19.070 5.375-38.78 11.807-59.034 19.294 11.519 5.919 23.678 12.447 36.349 19.582 11.775 6.527 23.326 13.087 34.461 19.582-3.552-20.862-7.487-40.38-11.775-58.459zM720.62 194.344c10.463 40.028 18.302 81.816 23.358 124.66 36.925 26.206 71.065 53.819 101.75 82.2 32.765-35.581 56.603-69.721 70.905-101.526 14.687-32.765 15.999-58.267 4.064-78.009-11.807-19.518-36.317-31.549-72.825-35.837-10.719-1.248-22.174-1.92-34.045-1.92-27.869 0.032-59.13 3.52-93.207 10.431z" />
<glyph unicode="&#xe926;" glyph-name="atom-2" d="M426.667 462.222c0-47.128 38.205-85.333 85.333-85.333s85.333 38.205 85.333 85.333v0c0 47.128-38.205 85.333-85.333 85.333s-85.333-38.205-85.333-85.333v0zM829.156 462.222c0 11.378-4.267 22.756-11.378 31.289 44.089 76.8 49.778 147.911 17.067 196.267-31.289 45.511-95.289 64-177.778 52.622-36.978 72.533-88.178 115.2-146.489 115.2-45.511 0-89.6-28.444-125.156-81.067-5.689 1.422-11.378 2.844-17.067 2.844-22.756 0-41.244-14.222-46.933-35.556-61.156 0-108.089-18.489-133.689-55.467-32.711-46.933-27.022-113.778 12.8-189.156 7.111-12.8 14.222-25.6 22.756-36.978-8.533-12.8-15.644-25.6-22.756-36.978-41.244-75.378-45.511-142.222-12.8-189.156 25.6-36.978 71.111-55.467 132.267-55.467h2.844c7.111-17.067 25.6-29.867 45.511-29.867 5.689 0 9.956 1.422 14.222 2.844 35.556-54.044 81.067-85.333 128-85.333 58.311 0 109.511 44.089 146.489 115.2 15.644-1.422 31.289-2.844 45.511-2.844 61.156 0 106.667 19.911 132.267 55.467 32.711 46.933 27.022 118.044-17.067 196.267 7.111 7.111 11.378 18.489 11.378 29.867zM640 214.756c-31.289 5.689-62.578 15.644-95.289 28.444 28.444 14.222 56.889 31.289 83.911 51.2 15.644 11.378 31.289 22.756 46.933 35.556-8.533-42.667-19.911-82.489-35.556-115.2zM413.867 221.867c-8.533 15.644-24.178 27.022-44.089 27.022-8.533 25.6-15.644 52.622-21.333 81.067 15.644-12.8 29.867-24.178 46.933-35.556 27.022-19.911 55.467-35.556 83.911-51.2-22.756-8.533-44.089-15.644-65.422-21.333zM371.2 679.822c17.067 0 32.711 9.956 41.244 22.756 21.333-5.689 44.089-12.8 66.844-22.756-28.444-14.222-56.889-31.289-83.911-51.2-15.644-11.378-31.289-22.756-46.933-35.556 5.689 31.289 12.8 59.733 22.756 86.756zM310.044 403.911c-18.489 18.489-35.556 38.4-49.778 58.311 14.222 19.911 31.289 39.822 49.778 58.311-1.422-19.911-2.844-38.4-2.844-58.311s1.422-39.822 2.844-58.311zM411.022 317.156c-25.6 17.067-48.356 35.556-69.689 55.467-2.844 28.444-5.689 58.311-5.689 88.178s1.422 59.733 5.689 88.178c21.333 19.911 45.511 38.4 69.689 55.467 32.711 22.756 66.844 42.667 100.978 59.733 34.133-15.644 68.267-35.556 100.978-59.733 24.178-17.067 48.356-35.556 69.689-55.467 4.267-28.444 5.689-58.311 5.689-89.6 0-29.867-1.422-59.733-5.689-89.6-21.333-19.911-45.511-38.4-69.689-55.467-32.711-22.756-66.844-42.667-100.978-59.733-34.133 19.911-68.267 39.822-100.978 62.578zM675.556 594.489c-15.644 12.8-29.867 24.178-46.933 35.556-27.022 18.489-55.467 35.556-83.911 51.2 32.711 12.8 64 22.756 95.289 28.444 15.644-32.711 27.022-72.533 35.556-115.2zM713.956 520.533c8.533-9.956 18.489-18.489 25.6-28.444-7.111-8.533-9.956-18.489-9.956-29.867s4.267-21.333 9.956-29.867c-8.533-9.956-17.067-18.489-25.6-28.444 1.422 18.489 2.844 38.4 2.844 58.311s-1.422 39.822-2.844 58.311zM812.089 672.711c27.022-36.978 19.911-96.711-17.067-163.556-4.267 1.422-9.956 2.844-15.644 2.844s-11.378-1.422-15.644-2.844c-15.644 18.489-34.133 38.4-54.044 55.467-7.111 55.467-21.333 106.667-39.822 149.333 68.267 7.111 118.044-7.111 142.222-41.244zM512 829.156c44.089 0 83.911-35.556 115.2-92.444-36.978-8.533-76.8-21.333-115.2-38.4-31.289 14.222-62.578 25.6-92.444 34.133 0 9.956-4.267 19.911-9.956 28.444 29.867 42.667 66.844 68.267 102.4 68.267zM226.133 513.422c-35.556 65.422-41.244 122.311-15.644 159.289 25.6 35.556 71.111 44.089 110.933 44.089 2.844-11.378 11.378-22.756 21.333-28.444-12.8-36.978-22.756-78.222-29.867-122.311-27.022-25.6-51.2-51.2-72.533-78.222-4.267 7.111-8.533 17.067-14.222 25.6zM211.911 251.733c-25.6 36.978-19.911 93.867 15.644 159.289 4.267 8.533 9.956 17.067 15.644 27.022 19.911-27.022 44.089-52.622 72.533-78.222 5.689-42.667 15.644-82.489 28.444-119.467-11.378-7.111-18.489-18.489-21.333-32.711-39.822 0-86.756 8.533-110.933 44.089zM512 95.289c-36.978 0-73.956 25.6-103.822 72.533 5.689 7.111 9.956 15.644 11.378 25.6 31.289 8.533 62.578 19.911 93.867 34.133 39.822-18.489 78.222-31.289 115.2-38.4-32.711-58.311-72.533-93.867-116.622-93.867zM812.089 251.733c-24.178-34.133-73.956-49.778-142.222-41.244 18.489 42.667 31.289 93.867 39.822 149.333 19.911 18.489 36.978 36.978 54.044 55.467 5.689-1.422 9.956-2.844 15.644-2.844s9.956 1.422 15.644 2.844c36.978-66.844 44.089-125.156 17.067-163.556z" />
<glyph unicode="&#xe927;" glyph-name="slack" d="M618.667 170.667c47.117-0.015 85.306-38.215 85.306-85.333 0-47.128-38.205-85.333-85.333-85.333-44.876 0-81.661 34.64-85.075 78.641l-0.018 0.293-0.213 6.4v42.667c0.003 21.803 16.359 39.784 37.47 42.348l0.205 0.020 4.992 0.299h42.667zM384 426.667c0.005 0 0.011 0 0.016 0 56.448 0 102.656-43.848 106.419-99.342l0.018-0.328 0.213-6.997v-213.333c0-0.077 0-0.168 0-0.259 0-58.91-47.756-106.667-106.667-106.667-56.54 0-102.805 43.99-106.437 99.612l-0.017 0.317-0.213 6.997v213.333c0 58.91 47.756 106.667 106.667 106.667v0zM618.667 106.667h-21.333v-21.333c0-11.782 9.551-21.333 21.333-21.333s21.333 9.551 21.333 21.333c0 11.782-9.551 21.333-21.333 21.333v0zM384 362.667c-23.564 0-42.667-19.103-42.667-42.667v0-213.333c0-23.564 19.103-42.667 42.667-42.667s42.667 19.103 42.667 42.667v0 213.333c0 23.564-19.103 42.667-42.667 42.667v0zM853.333 426.667c0.077 0 0.168 0 0.259 0 58.91 0 106.667-47.756 106.667-106.667 0-56.54-43.99-102.805-99.612-106.437l-0.317-0.017-6.997-0.213h-213.333c-0.077 0-0.168 0-0.259 0-58.91 0-106.667 47.756-106.667 106.667 0 56.54 43.99 102.805 99.612 106.437l0.317 0.017 6.997 0.213h213.333zM192 426.667c21.803-0.003 39.784-16.359 42.348-37.47l0.020-0.205 0.299-4.992v-42.667c-0.015-47.117-38.215-85.306-85.333-85.306-47.128 0-85.333 38.205-85.333 85.333 0 44.876 34.64 81.661 78.641 85.075l0.293 0.018 6.4 0.213h42.667zM853.333 362.667h-213.333c-23.564 0-42.667-19.103-42.667-42.667s19.103-42.667 42.667-42.667v0h213.333c23.564 0 42.667 19.103 42.667 42.667s-19.103 42.667-42.667 42.667v0zM170.667 362.667h-21.333c-11.782 0-21.333-9.551-21.333-21.333s9.551-21.333 21.333-21.333c11.782 0 21.333 9.551 21.333 21.333v0 21.333zM384 682.667c0.077 0 0.168 0 0.259 0 58.91 0 106.667-47.756 106.667-106.667 0-56.54-43.99-102.805-99.612-106.437l-0.317-0.017-6.997-0.213h-213.333c-0.077 0-0.168 0-0.259 0-58.91 0-106.667 47.756-106.667 106.667 0 56.54 43.99 102.805 99.612 106.437l0.317 0.017 6.997 0.213h213.333zM874.667 640c0.113 0.001 0.248 0.001 0.382 0.001 47.128 0 85.333-38.205 85.333-85.333 0-45.011-34.849-81.882-79.037-85.105l-0.278-0.016-6.4-0.213h-42.667c-21.803 0.003-39.784 16.359-42.348 37.47l-0.020 0.205-0.299 4.992v42.667c0 47.128 38.205 85.333 85.333 85.333v0zM640 896c0.005 0 0.011 0 0.016 0 56.448 0 102.656-43.848 106.419-99.342l0.018-0.328 0.213-6.997v-213.333c0-0.077 0-0.168 0-0.259 0-58.91-47.756-106.667-106.667-106.667-56.54 0-102.805 43.99-106.437 99.612l-0.017 0.317-0.213 6.997v213.333c0 58.91 47.756 106.667 106.667 106.667v0zM384 618.667h-213.333c-23.564 0-42.667-19.103-42.667-42.667s19.103-42.667 42.667-42.667h213.333c23.564 0 42.667 19.103 42.667 42.667s-19.103 42.667-42.667 42.667v0zM874.667 576c-11.782 0-21.333-9.551-21.333-21.333v0-21.333h21.333c11.782 0 21.333 9.551 21.333 21.333s-9.551 21.333-21.333 21.333v0zM640 832c-23.564 0-42.667-19.103-42.667-42.667v0-213.333c0-23.564 19.103-42.667 42.667-42.667s42.667 19.103 42.667 42.667v0 213.333c0 23.564-19.103 42.667-42.667 42.667v0zM405.333 896c0.008 0 0.018 0 0.027 0 44.876 0 81.661-34.641 85.075-78.641l0.018-0.293 0.213-6.4v-42.667c-0.003-21.803-16.359-39.784-37.47-42.348l-0.205-0.020-4.992-0.299h-42.667c-47.128 0-85.333 38.205-85.333 85.333s38.205 85.333 85.333 85.333v0zM405.333 832c-11.782 0-21.333-9.551-21.333-21.333s9.551-21.333 21.333-21.333v0h21.333v21.333c0 11.782-9.551 21.333-21.333 21.333v0z" />
<glyph unicode="&#xe928;" glyph-name="bell" d="M768 490.667c-25.6 0-42.667 17.067-42.667 42.667 0 119.467-93.867 213.333-213.333 213.333s-213.333-93.867-213.333-213.333c0-25.6-17.067-42.667-42.667-42.667s-42.667 17.067-42.667 42.667c0 166.4 132.267 298.667 298.667 298.667s298.667-132.267 298.667-298.667c0-25.6-17.067-42.667-42.667-42.667zM896 106.667c-93.867 0-170.667 110.933-170.667 256 0 25.6 17.067 42.667 42.667 42.667s42.667-17.067 42.667-42.667c0-98.133 46.933-170.667 85.333-170.667 25.6 0 42.667-17.067 42.667-42.667s-17.067-42.667-42.667-42.667zM128 106.667c-25.6 0-42.667 17.067-42.667 42.667s17.067 42.667 42.667 42.667c38.4 0 85.333 72.533 85.333 170.667 0 25.6 17.067 42.667 42.667 42.667s42.667-17.067 42.667-42.667c0-145.067-76.8-256-170.667-256zM896 106.667h-767.999c-25.6 0-42.667 17.067-42.667 42.667s17.067 42.667 42.667 42.667h767.999c25.6 0 42.667-17.067 42.667-42.667s-17.067-42.667-42.667-42.667zM256 320c-25.6 0-42.667 17.067-42.667 42.667v170.667c0 25.6 17.067 42.667 42.667 42.667s42.667-17.067 42.667-42.667v-170.667c0-25.6-17.067-42.667-42.667-42.667zM768 320c-25.6 0-42.667 17.067-42.667 42.667v170.667c0 25.6 17.067 42.667 42.667 42.667s42.667-17.067 42.667-42.667v-170.667c0-25.6-17.067-42.667-42.667-42.667zM512-63.999c-93.867 0-170.667 76.8-170.667 170.667 0 21.333 4.267 38.4 8.533 59.733 8.533 21.333 34.133 34.133 55.467 25.6s34.133-34.133 25.6-55.467c-4.267-12.8-4.267-21.333-4.267-29.867 0-46.933 38.4-85.333 85.333-85.333s85.333 38.4 85.333 85.333c0 8.533 0 17.067-4.267 25.6-8.533 21.333 4.267 46.933 25.6 55.467s46.933-4.267 55.467-25.6c8.533-17.067 8.533-38.4 8.533-59.733 0-89.6-76.8-166.4-170.667-166.4zM512 746.667c-25.6 0-42.667 17.067-42.667 42.667v128c0 25.6 17.067 42.667 42.667 42.667s42.667-17.067 42.667-42.667v-128c0-25.6-17.067-42.667-42.667-42.667z" />
<glyph unicode="&#xe929;" glyph-name="bomb" d="M853.333 755.2c-3.413 0-6.827 0-10.24 3.413-44.373 27.307-177.493 98.987-228.693 98.987-58.027 0-71.68-23.893-85.333-58.027-6.827-10.24-17.067-13.653-23.893-10.24-10.24 3.413-13.653 13.653-10.24 23.893 20.48 40.96 44.373 78.507 119.467 78.507 68.267 0 228.693-95.573 249.173-105.813 6.827-3.413 10.24-13.653 6.827-23.893-6.827-3.413-10.24-6.827-17.067-6.827zM853.333 857.6c-10.24 0-17.067 6.827-17.067 17.067v34.133c0 10.24 6.827 17.067 17.067 17.067s17.067-6.827 17.067-17.067v-34.133c0-10.24-6.827-17.067-17.067-17.067zM853.333 618.667c-10.24 0-17.067 6.827-17.067 17.067v34.133c0 10.24 6.827 17.067 17.067 17.067s17.067-6.827 17.067-17.067v-34.133c0-10.24-6.827-17.067-17.067-17.067zM989.867 755.2h-34.133c-10.24 0-17.067 6.827-17.067 17.067s6.827 17.067 17.067 17.067h34.133c10.24 0 17.067-6.827 17.067-17.067s-6.827-17.067-17.067-17.067zM925.013 826.88c-3.413 0-10.24 0-13.653 3.413-6.827 6.827-6.827 17.067 0 23.893l23.893 23.893c6.827 6.827 17.067 6.827 23.893 0s6.827-17.067 0-23.893l-23.893-23.893s-6.827-3.413-10.24-3.413zM757.76 659.627c-3.413 0-10.24 0-13.653 3.413-6.827 6.827-6.827 17.067 0 23.893l23.893 23.893c6.827 6.827 17.067 6.827 23.893 0s6.827-17.067 0-23.893l-23.893-23.893c-3.413-3.413-6.827-3.413-10.24-3.413zM948.907 659.627c-3.413 0-10.24 0-13.653 3.413l-20.48 23.893c-6.827 6.827-6.827 17.067 0 23.893s17.067 6.827 23.893 0l23.893-23.893c6.827-6.827 6.827-17.067 0-23.893-3.413-3.413-6.827-3.413-13.653-3.413zM580.267 584.533h-6.827c-10.24 3.413-13.653 13.653-10.24 23.893l44.373 105.813c-71.68 44.373-150.187 71.68-221.867 75.093l-44.373-126.293c-3.413-6.827-13.653-13.653-23.893-10.24-6.827 3.413-13.653 13.653-10.24 23.893l51.2 136.533c3.413 6.827 10.24 10.24 17.067 10.24 88.747 0 184.32-30.72 266.24-88.747 6.827-3.413 10.24-13.653 6.827-20.48l-51.2-119.467c-3.413-6.827-10.24-10.24-17.067-10.24zM375.467-29.867c-197.973 0-358.4 160.427-358.4 358.4s160.427 358.4 358.4 358.4 358.4-160.427 358.4-358.4-160.427-358.4-358.4-358.4zM375.467 652.8c-177.493 0-324.267-146.773-324.267-324.267s146.773-324.267 324.267-324.267 324.267 146.773 324.267 324.267-146.773 324.267-324.267 324.267zM102.4 311.467c-10.24 0-17.067 6.827-17.067 17.067 0 160.427 129.707 290.133 290.133 290.133 10.24 0 17.067-6.827 17.067-17.067s-6.827-17.067-17.067-17.067c-139.947 0-256-116.053-256-256 0-10.24-6.827-17.067-17.067-17.067z" />
<glyph unicode="&#xe92a;" glyph-name="map" d="M601.023 860.414c-1.137 0.145-2.451 0.224-3.786 0.224-17.671 0-32.001-14.326-32.001-32.001 0-16.167 11.984-29.531 27.555-31.695l0.167-0.020c66.778-8.79 126.467-33.709 176.731-70.692l-1.051 0.74c-115.744-26.336-150.943-106.050-158.335-175.007-10.719-99.681 60.223-151.967 107.168-186.561 16.479-12.159 41.374-30.527 42.527-39.103 0.159-1.247-0.99-5.409-6.561-12.416-61.054-76.959-83.807-140.833-67.551-189.951 4.959-14.91 15.296-32.897 36.287-47.841-51.63-27.775-112.976-44.096-178.134-44.096-0.015 0-0.030 0-0.042 0h0.002c-3.009 0-5.953 0.351-8.961 0.416 40.097 67.393 25.727 118.303 3.424 151.105-54.081 79.487-134.911 104.13-211.041 64.191-5.28-2.85-9.6-1.697-34.401 21.63-24.45 23.040-63.231 58.945-120.031 48.321-5.023 19.2-8.991 38.88-11.040 59.199-1.746 16.249-15.388 28.791-31.952 28.791-1.099 0-2.185-0.055-3.254-0.162l0.136 0.012c-17.567-1.791-30.399-17.473-28.641-35.070 23.164-226.896 213.241-402.434 444.317-402.434 0.509 0 1.015 0.001 1.523 0.003h-0.079c247.041 0 447.998 200.961 447.998 447.998 0 225.025-168.064 416.065-390.976 444.415zM195.072 255.679c18.368-0.703 33.12-13.217 54.081-32.927 24-22.624 60.351-56.67 108-31.71 63.33 33.279 107.614-12.99 128.383-43.487 8.13-11.936 28.894-42.591-22.431-106.753-120.104 26.132-217.435 105.98-267.048 212.528l-0.985 2.353zM784.417 117.024c-20.991 6.017-33.823 15.073-37.826 27.073-8.546 25.761 12.737 74.37 56.927 129.985 15.87 20.001 22.56 40.414 19.873 60.673-4.736 35.52-35.456 58.174-68.001 82.144-43.393 32.001-88.29 65.057-81.505 128.191 5.537 51.265 28.29 118.337 156.703 126.111 60.432-67.437 97.385-156.999 97.41-255.195v-0.005c0-120.767-56.16-228.544-143.584-298.975zM266.463 360.319c5.665-5.167 13.23-8.33 21.536-8.33s15.871 3.164 21.562 8.355l-0.027-0.025c147.008 133.663 218.464 240.865 218.464 327.681 0 132.351-107.648 240-240 240s-240-107.648-240-240c0-86.816 71.456-194.014 218.464-327.681zM287.999 864c97.054 0 176.001-78.943 176.001-176.001 0-43.873-31.23-124.127-176.001-260.417-144.767 136.29-176.001 216.544-176.001 260.417 0 97.054 78.943 176.001 176.001 176.001zM208.002 688c0-44.184 35.817-80.001 80.001-80.001s80.001 35.817 80.001 80.001v0c0 44.184-35.817 80.001-80.001 80.001s-80.001-35.817-80.001-80.001v0z" />
<glyph unicode="&#xe92b;" glyph-name="application" d="M957.323 698.304c0 7.898-4.253 15.796-11.543 19.441l-422.844 239.369c-6.683 3.645-15.188 3.645-21.871 0l-422.844-238.761c-7.29-4.253-11.543-11.543-11.543-19.441s4.253-15.796 11.543-19.441l422.844-236.331c3.645-1.823 7.29-3.038 10.936-3.038s7.29 0.608 10.936 3.038l422.844 236.331c7.29 3.645 11.543 10.936 11.543 18.834zM512 518.474l-334.752 180.438 334.752 182.868 329.284-182.868-329.284-180.438zM455.499 378.741l-378.494 200.486c-6.683 3.645-15.188 3.645-21.871-0.608s-10.936-11.543-10.936-18.834v-379.102c0-7.898 4.253-15.188 10.936-19.441l378.494-222.358c3.645-1.823 7.29-3.038 11.543-3.038 3.645 0 7.898 1.215 10.936 3.038 6.683 4.253 10.936 11.543 10.936 19.441v400.973c0.608 7.898-4.253 15.188-11.543 19.441zM392.923 51.887l-273.391 153.706v273.998l273.391-146.416v-281.289zM568.501 378.741c-7.29-3.645-12.151-11.543-12.151-19.441v-400.973c0-7.898 4.253-15.188 10.936-19.441 3.645-1.823 7.29-3.038 10.936-3.038s7.898 1.215 11.543 3.038l378.494 222.358c6.683 4.253 10.936 11.543 10.936 19.441v378.494c0 7.898-4.253 15.188-10.936 18.834s-15.188 4.253-21.871 0.608l-377.887-199.879zM631.077 333.176l273.391 146.416v-273.998l-273.391-153.706v281.289z" />
<glyph unicode="&#xe92c;" glyph-name="break" d="M128 224c0-88.366 71.634-160 160-160s160 71.634 160 160v0c0 88.366-71.634 160-160 160s-160-71.634-160-160v0zM544.512 859.648l-80.64-47.040c-1.408-0.832-2.4-2.112-3.648-3.104-1.28-1.056-2.592-1.92-3.712-3.168-1.834-2.099-3.416-4.489-4.654-7.075l-0.082-0.189c-0.416-0.8-1.12-1.376-1.472-2.24l-152.192-381.344c-3.36 0.192-6.72 0.512-10.112 0.512-105.888 0-192-86.112-192-192s86.112-192 192-192 192 86.112 192 192c-0.108 79.512-48.468 147.703-117.363 176.87l-1.261 0.474 117.376 294.080 200.192-546.432c4.647-12.346 16.358-20.971 30.084-20.971 5.927 0 11.479 1.608 16.242 4.412l-0.15-0.082 283.008 165.056c9.577 5.641 15.902 15.901 15.902 27.638 0 7.938-2.893 15.2-7.682 20.789l0.036-0.043-431.36 506.944c-5.917 6.907-14.648 11.257-24.396 11.257-5.937 0-11.497-1.614-16.266-4.426l0.15 0.082zM416 224c0-70.592-57.408-128-128-128s-128 57.408-128 128 57.408 128 128 128 128-57.408 128-128zM942.848 333.44l-216.96-126.528-44.928 122.592 225.632 46.56 36.256-42.624zM882.944 403.84l-199.52-41.152 108.48 148.16 91.040-107.008zM660.448 385.472l-43.424 118.624 147.712 23.808-104.288-142.4zM751.616 558.208l-145.824-23.52-0.64 1.856 54.496 129.728 91.968-108.064zM588.96 580.672l-35.712 97.408 82.624 14.176-46.912-111.616zM542.048 708.672l-22.752 62.144 34.336 20.032 59.552-70.016-71.136-12.16zM192 208c0-8.837 7.163-16 16-16s16 7.163 16 16v0c0 44.096 35.872 80 80 80 8.837 0 16 7.163 16 16s-7.163 16-16 16v0c-61.76 0-112-50.24-112-112zM16 384h96c8.837 0 16 7.163 16 16s-7.163 16-16 16v0h-96c-8.837 0-16-7.163-16-16s7.163-16 16-16v0zM16 320h64c8.837 0 16 7.163 16 16s-7.163 16-16 16v0h-64c-8.837 0-16-7.163-16-16s7.163-16 16-16v0zM16 256h32c8.837 0 16 7.163 16 16s-7.163 16-16 16v0h-32c-8.837 0-16-7.163-16-16s7.163-16 16-16v0zM16 160h32c8.837 0 16 7.163 16 16s-7.163 16-16 16v0h-32c-8.837 0-16-7.163-16-16s7.163-16 16-16v0zM16 96h64c8.837 0 16 7.163 16 16s-7.163 16-16 16v0h-64c-8.837 0-16-7.163-16-16s7.163-16 16-16v0zM16 32h96c8.837 0 16 7.163 16 16s-7.163 16-16 16v0h-96c-8.837 0-16-7.163-16-16s7.163-16 16-16v0z" />
<glyph unicode="&#xe92d;" glyph-name="construction" d="M652.352 32h-536.704c-46.139 0.145-83.503 37.509-83.648 83.634v24.718c0.145 46.139 37.509 83.503 83.634 83.648h536.718c46.139-0.145 83.503-37.509 83.648-83.634v-24.718c-0.145-46.139-37.509-83.503-83.634-83.648h-0.014zM992 32h-128v320l96-256zM1018.048 51.456l-28.672 57.344-95.392 254.432c-4.666 12.265-16.326 20.822-29.984 20.822-17.673 0-32-14.327-32-32 0-0.019 0-0.038 0-0.057v0.003-59.648l-110.176-60.16c-5.175 3.95-11.013 7.63-17.172 10.77l-0.652 0.302v172.736c0 17.673-14.327 32-32 32v0h-32v320c0 18.496 15.264 35.328 32 35.328 17.673 0 32 14.327 32 32s-14.327 32-32 32v0c-51.040 0-94.272-43.744-95.936-96.192-0.034-0.52-0.057-1.145-0.064-1.774v-321.362h-39.84l-57.376 200.8c-3.953 13.504-16.228 23.2-30.766 23.2-0.006 0-0.012 0-0.019 0h-287.999c-17.673 0-32-14.327-32-32s14.327-32 32-32v0h64v-160c-7.104 0-14.016-2.368-19.616-6.72l-128-99.328c-7.565-5.909-12.383-15.032-12.384-25.28v0-73.408c-37.76-19.040-64-57.792-64-102.912v-24.704c0.073-63.841 51.807-115.575 115.641-115.648h536.711c31.2 0 59.424 12.544 80.256 32.672 1.152-0.128 2.176-0.672 3.392-0.672h96c0-17.673 14.327-32 32-32v0h128.64c0.001 0 0.001 0 0.002 0 17.673 0 32 14.327 32 32 0 7.353-2.48 14.127-6.649 19.53l0.055-0.074zM288 608h135.872l45.696-160h-181.568v160zM128 300.992l106.976 83.008h405.024v-128h-512v44.992zM704 115.648c0-28.48-23.2-51.648-51.648-51.648h-536.704c-28.48 0-51.648 23.168-51.648 51.648v24.704c0 28.48 23.2 51.648 51.648 51.648h536.704c28.48 0 51.648-23.168 51.648-51.648v-24.704zM832 96h-65.984c1.12 6.4 1.984 12.928 1.984 19.648v24.704c0 14.080-2.88 27.456-7.552 40l71.552 39.040v-123.392zM896 64v111.52l34.016-90.752c0.416-1.056 0.864-2.080 1.344-3.072l8.864-17.696h-44.224zM624 128h-480c-8.837 0-16-7.163-16-16s7.163-16 16-16v0h480c8.837 0 16 7.163 16 16s-7.163 16-16 16v0z" />
<glyph unicode="&#xe92e;" glyph-name="bomb-1" d="M512-64c-176.448 0-320 143.552-320 320s143.552 320 320 320 320-143.552 320-320-143.552-320-320-320zM512 512c-141.152 0-256-114.848-256-256s114.848-256 256-256 256 114.848 256 256-114.848 256-256 256zM384 256h-64c0 105.888 86.112 192 192 192v-64c-70.592 0-128-57.408-128-128zM608 640h-64v64h-64v-64h-64v128h192zM480 864h64v-128h-64v128zM544 864h-64c0 52.928 43.072 96 96 96v-64c-17.664 0-32-14.336-32-32z" />
<glyph unicode="&#xe92f;" glyph-name="bomb-grenade" d="M376.235-48c-32.436 0.014-61.016 16.507-77.824 41.561l-0.213 0.337c-56.637 83.284-90.427 186.073-90.427 296.753 0 4.964 0.068 9.911 0.203 14.842l-0.016-0.726c-0.105 3.944-0.166 8.587-0.166 13.244 0 110.484 33.819 213.068 91.671 297.966l-1.18-1.835c17.115 25.384 45.761 41.856 78.254 41.856 0.104 0 0.207 0 0.311-0.001h23.109v128.043h-115.413c-37.632-37.077-172.587-190.421-172.587-480 0-17.673-14.327-32-32-32s-32 14.327-32 32v0c0 362.795 195.2 529.664 203.52 536.576 5.51 4.606 12.666 7.409 20.477 7.424h452.227c14.919 55.452 64.611 95.652 123.741 95.957h0.035c70.571 0 128-57.429 128-128s-57.429-128-128-128c-59.199 0.311-108.914 40.549-123.612 95.142l-0.206 0.9h-68.181v-128.043h24.064c31.232 0 60.288-15.659 77.781-41.941 56.662-83.302 90.468-186.116 90.468-296.827 0-4.938-0.067-9.86-0.201-14.765l0.016 0.723c0.105-3.937 0.165-8.571 0.165-13.219 0-110.492-33.819-213.085-91.671-297.993l1.18 1.836c-17.051-25.379-45.648-41.856-78.094-41.856-0.055 0-0.11 0-0.165 0h-303.266zM295.467 144c13.312-40.448 32.128-78.891 55.979-114.517 5.273-8.061 14.208-13.346 24.385-13.482h303.679c0.011 0 0.025 0 0.038 0 10.388 0 19.545 5.274 24.939 13.29l0.068 0.107c22.422 32.979 41.403 70.905 55.049 111.288l0.972 3.315h-465.109zM776.875 208c4.684 25.001 7.364 53.764 7.364 83.153 0 4.232-0.056 8.452-0.166 12.657l0.013-0.621c0.105 3.754 0.165 8.173 0.165 12.605 0 29.759-2.699 58.888-7.866 87.155l0.447-2.949h-497.664c-4.685-24.995-7.364-53.752-7.364-83.134 0-4.239 0.056-8.465 0.167-12.677l-0.013 0.622c-0.811-33.024 1.664-65.365 7.253-96.811h497.664zM760.576 464c-14.614 43.682-33.58 81.593-57.035 116.214l1.057-1.654c-5.306 8.006-14.198 13.267-24.331 13.482l-0.032 0.001h-303.829c-0.036 0-0.078 0-0.12 0-10.314 0-19.395-5.281-24.686-13.287l-0.069-0.11c-22.415-32.981-41.408-70.903-55.086-111.277l-0.978-3.326h465.109zM591.957 656v128h-128v-128h128zM847.957 880c-35.285 0-64-28.715-64-64s28.715-64 64-64 64 28.715 64 64-28.715 64-64 64z" />
<glyph unicode="&#xe930;" glyph-name="bookmark" d="M753.2 758.2v-516.9c0-83.4-50.4-241.2-241.2-241.2s-241.2 157.8-241.2 241.2v482.4c0 4.4 0.6 43.7 20.9 84.3 28.4 56.7 82.2 88 151.4 88 69.3 0 123.1-31.3 151.4-88 20.2-40.5 20.9-79.9 20.9-84.3v-448c0-41.6-27.5-103.4-103.4-103.4-75.8 0-103.4 61.8-103.5 103.4v310.1c0 19 15.5 34.5 34.5 34.5 19.1 0 34.5-15.4 34.5-34.5v-310.2c0.5-15.5 6.7-34.5 34.5-34.5s34.1 19 34.5 34.8v447.8c-0.2 17.1-6.1 103.4-103.4 103.4-43.7 0-73-16.3-89.8-49.9-13-26-13.6-53.2-13.6-53.5v-482.5c0.1-17.5 6.1-172.3 172.3-172.3 170.4 0 172.3 165.3 172.3 172.3v517c0 19 15.4 34.5 34.5 34.5s34.4-15.5 34.4-34.5z" />
<glyph unicode="&#xe931;" glyph-name="bookmark-1" d="M378.88 44.684c-11.869 0-23.738 4.422-32.815 13.498l-260.655 260.655c-8.336 8.197-13.502 19.596-13.502 32.201 0 0.216 0.002 0.431 0.005 0.646v-0.033c0 12.335 4.887 23.971 13.498 32.815l308.596 308.596c4.199 4.199 10 6.796 16.407 6.796 12.815 0 23.203-10.389 23.203-23.203 0-6.407-2.597-12.208-6.796-16.407v0l-308.364-308.829 260.655-260.422 407.040 407.273c71.68 71.68 71.68 188.509 0 260.422s-188.509 71.68-260.422 0c-4.199-4.199-10-6.796-16.407-6.796-12.815 0-23.203 10.389-23.203 23.203 0 6.407 2.597 12.208 6.796 16.407v0c89.833 89.833 236.218 89.833 326.051 0s89.833-236.218 0-326.051l-407.273-407.273c-9.076-9.076-20.945-13.498-32.815-13.498zM639.535 508.276c-57.384 0.025-103.892 46.549-103.892 103.936 0 28.656 11.597 54.603 30.353 73.404l-0.002-0.002c18.802 18.768 44.758 30.374 73.425 30.374s54.624-11.606 73.427-30.375l-0.002 0.002c18.768-18.802 30.374-44.758 30.374-73.425s-11.606-54.624-30.375-73.427l0.002 0.002c-20.015-20.247-46.545-30.487-73.309-30.487zM639.535 669.556c-14.662 0-29.324-5.585-40.495-16.756-22.342-22.342-22.342-58.647 0-81.222s58.88-22.342 81.222 0 22.342 58.647 0 81.222c-11.171 11.171-26.065 16.756-40.727 16.756z" />
<glyph unicode="&#xe932;" glyph-name="bookmark-3" horiz-adv-x="1081" d="M356.577-64c-7.516 0.002-14.285 3.201-19.021 8.311l-0.015 0.017-188.967 203.613c-4.2 4.596-6.773 10.741-6.773 17.486 0 14.337 11.623 25.96 25.96 25.96 7.435 0 14.14-3.126 18.873-8.134l0.012-0.012 175.071-188.705 250.025 139.616c7.083 3.982 12.121 10.884 13.505 19.032l0.022 0.159 57.869 346.215c2.467 11.969 12.918 20.84 25.44 20.84 14.331 0 25.948-11.617 25.948-25.948 0-1.215-0.084-2.411-0.245-3.581l0.015 0.136-57.881-346.215c-4.095-24.206-18.783-44.322-39.034-55.714l-0.394-0.204-267.764-149.586c-3.636-2.066-7.987-3.284-12.622-3.284-0.009 0-0.017 0-0.026 0h0.001zM1002.501 555.214c-14.317 0.010-25.919 11.618-25.919 25.936 0 6.569 2.442 12.567 6.468 17.137l-0.025-0.029c67.911 77.417 60.177 195.665-17.239 263.599s-195.689 60.165-263.588-17.251c-4.774-5.354-11.691-8.709-19.391-8.709-14.328 0-25.942 11.615-25.942 25.942 0 6.505 2.394 12.45 6.349 17.004l-0.027-0.032c86.756 98.868 237.853 108.838 336.804 22.034s108.814-237.877 22.022-336.804c-4.761-5.423-11.708-8.828-19.45-8.828-0.022 0-0.043 0-0.065 0h0.003zM389.355 135.341c-1.19 0-2.379 0-3.641 0.083l-306.406 13.908c-12.235 0.583-22.213 9.551-24.342 21.257l-0.024 0.159-53.681 301.957c-0.801 4.212-1.26 9.057-1.26 14.009 0 19.959 7.447 38.179 19.713 52.033l-0.072-0.083 277.448 316.258c103.757 118.237 284.42 130.051 402.704 26.293s130.098-284.42 26.353-402.692l-277.472-316.258c-14.471-16.537-35.617-26.924-59.19-26.924-0.046 0-0.092 0-0.138 0h0.007zM388.058 187.262c0.332-0.014 0.722-0.023 1.113-0.023 8.149 0 15.467 3.562 20.48 9.215l0.025 0.028 277.448 316.246c84.888 96.774 75.239 244.587-21.546 329.487s-244.575 75.227-329.487-21.582l-277.389-316.21c-4.18-4.729-6.731-10.982-6.731-17.831 0-1.687 0.155-3.338 0.451-4.94l-0.026 0.166 50.052-281.577zM525.164 583.708c-54.39 0.073-98.453 44.182-98.453 98.582 0 54.445 44.137 98.582 98.582 98.582s98.582-44.137 98.582-98.582c0-24.958-9.274-47.749-24.565-65.116l0.094 0.109c-16.741-19.085-40.597-31.574-67.385-33.298l-0.288-0.015c-2.201-0.178-4.39-0.262-6.567-0.262zM525.319 729.023c-0.009 0-0.020 0-0.031 0-25.784 0-46.686-20.902-46.686-46.686s20.902-46.686 46.686-46.686c13.962 0 26.493 6.129 35.048 15.843l0.044 0.051c7.208 8.174 11.607 18.975 11.607 30.802 0 25.776-20.894 46.671-46.669 46.674v0zM962.835 407.055c-0.075 0-0.164 0-0.253 0-54.478 0-98.642 44.163-98.642 98.642s44.163 98.642 98.642 98.642c54.478 0 98.642-44.163 98.642-98.642 0-34.942-18.168-65.64-45.572-83.164l-0.396-0.237c-14.856-9.52-32.971-15.193-52.407-15.241h-0.013zM962.525 552.37c-0.027 0-0.060 0-0.092 0-25.928 0-46.947-21.019-46.947-46.947s21.019-46.947 46.947-46.947c25.928 0 46.947 21.019 46.947 46.947 0 22.204-15.415 40.808-36.126 45.694l-0.318 0.063c-3.127 0.754-6.717 1.187-10.409 1.19h-0.002zM133.060 342.202c-12.869 0.029-23.537 9.417-25.559 21.717l-0.020 0.15-17.608 110.349c-0.203 1.222-0.32 2.63-0.32 4.065 0 6.261 2.213 12.005 5.9 16.492l-0.036-0.045 71.289 87.065c4.792 5.698 11.925 9.294 19.898 9.294 14.331 0 25.948-11.617 25.948-25.948 0-6.16-2.146-11.818-5.732-16.268l0.039 0.050-63.913-78.047 15.764-98.88c0.21-1.241 0.331-2.671 0.331-4.129 0-12.887-9.399-23.579-21.715-25.595l-0.15-0.020c-1.080-0.162-2.327-0.255-3.596-0.255-0.183 0-0.366 0.002-0.548 0.006h0.027z" />
<glyph unicode="&#xe933;" glyph-name="bug" d="M870.399 345.601h102.399c28.273 0.005 51.192 22.926 51.192 51.2s-22.919 51.195-51.192 51.2h-102.4v51.2c-0.494 24.995-4.388 48.889-11.238 71.499l0.486-1.867c96.489 37.737 163.714 129.722 164.351 237.487v0.079c0 28.277-22.924 51.2-51.2 51.2s-51.2-22.924-51.2-51.2v0c-0.097-69.044-45.734-127.402-108.48-146.656l-1.088-0.287c-25.123 31.993-57.032 57.506-93.658 74.604l-1.573 0.66c0.253 3.066 0.397 6.636 0.397 10.24s-0.144 7.175-0.427 10.705l0.030-0.466c0 113.108-91.692 204.8-204.8 204.8s-204.8-91.692-204.8-204.8v0c-0.253-3.066-0.397-6.636-0.397-10.24s0.144-7.175 0.427-10.705l-0.030 0.466c-39.007-17.496-71.625-43.057-96.88-74.745l-0.398-0.518c-62.843 20.208-107.52 78.148-107.52 146.524 0 0.148 0 0.294 0.001 0.442v-0.023c0 28.277-22.924 51.2-51.2 51.2s-51.2-22.924-51.2-51.2v0c0.637-107.846 67.862-199.829 162.611-236.967l1.74-0.6c-6.364-20.743-10.258-44.637-10.748-69.367l-0.004-0.265v-51.2h-102.399c-28.273-0.005-51.192-22.926-51.192-51.2s22.919-51.195 51.192-51.2h102.4v-51.2c0.048-25.037 2.656-49.435 7.576-72.985l-0.407 2.329c-94.696-38.691-160.301-129.897-160.767-236.484v-0.059c0-28.277 22.924-51.2 51.2-51.2s51.2 22.924 51.2 51.2v0c0.299 62.522 37.905 116.187 91.688 139.9l0.984 0.386c61.371-114.494 180.209-191.045 316.927-191.045s255.556 76.552 315.987 189.131l0.938 1.914c54.765-24.101 92.373-77.766 92.672-140.249v-0.038c0-28.277 22.924-51.2 51.2-51.2s51.2 22.924 51.2 51.2v0c-0.467 106.646-66.071 197.852-159.059 235.924l-1.708 0.619c4.512 21.221 7.12 45.62 7.168 70.62v0.036zM460.8 43.521c-117.686 24.653-204.8 127.567-204.8 250.827 0 0.018 0 0.037 0 0.055v-0.002 204.8c0 84.83 68.769 153.599 153.599 153.599v0h51.2zM409.601 755.199c0 56.553 45.846 102.399 102.399 102.399s102.399-45.846 102.399-102.399v0zM767.999 294.401c0-0.016 0-0.034 0-0.053 0-123.26-87.114-226.174-203.132-250.534l-1.667-0.293v609.277h51.2c84.83 0 153.599-68.769 153.599-153.599v0z" />
<glyph unicode="&#xe934;" glyph-name="bug-1" d="M916.21 340.211h-81.65c-3.354 61.319-18.522 118.327-43.256 169.874l1.164-2.694c56.326 17.015 96.652 68.406 96.741 129.229v0.011c0 14.882-12.065 26.947-26.947 26.947s-26.947-12.065-26.947-26.947v0c0-41.014-30.72-75.021-70.386-80.141-15.004 22.708-31.045 42.516-48.79 60.649l0.069-0.072c7.163 21.875 11.294 47.049 11.294 73.189 0 133.989-108.536 242.628-242.486 242.795h-0.016c-133.966-0.167-242.502-108.806-242.502-242.795 0-26.14 4.131-51.315 11.775-74.907l-0.481 1.718c-17.756-18.029-33.803-37.843-47.817-59.116l-0.904-1.462c-39.891 5.4-70.326 39.207-70.386 80.135v0.006c0 14.882-12.065 26.947-26.947 26.947s-26.947-12.065-26.947-26.947v0c0-61.117 40.906-112.802 96.741-129.24-23.544-48.856-38.709-105.86-42.040-166.021l-0.052-1.161h-81.597c-14.882 0-26.947-12.065-26.947-26.947s12.065-26.947 26.947-26.947h81.65c3.354-61.319 18.522-118.327 43.256-169.874l-1.164 2.694c-56.326-17.015-96.652-68.406-96.741-129.229v-0.011c0-14.882 12.065-26.947 26.947-26.947s26.947 12.065 26.947 26.947v0c0 41.014 30.72 75.021 70.386 80.141 9.378-14.336 19.672-28.079 30.774-41.067 66.29-77.339 154.731-119.916 249.1-119.916s182.865 42.577 249.1 119.916c11.156 12.988 21.396 26.732 30.774 41.067 39.891-5.4 70.326-39.207 70.386-80.135v-0.006c0-14.882 12.065-26.947 26.947-26.947s26.947 12.065 26.947 26.947v0c-0.088 60.834-40.415 112.225-95.785 128.99l-0.956 0.248c23.544 48.856 38.709 105.86 42.040 166.021l0.052 1.161h81.597c14.882 0 26.947 12.065 26.947 26.947s-12.065 26.947-26.947 26.947v0zM485.053 879.157c104.207-0.12 188.636-84.623 188.636-188.847 0-12.003-1.12-23.745-3.261-35.126l0.183 1.173c-55.080 39.775-118.838 61.117-185.56 61.117s-130.479-21.288-185.56-61.117c-1.958 10.208-3.078 21.95-3.078 33.954 0 104.223 84.43 188.727 188.625 188.847h0.012zM188.632 313.263c0 182.433 118.622 332.692 269.473 348.86v-697.719c-150.851 16.168-269.473 166.427-269.473 348.86zM512-35.597v697.719c150.851-16.168 269.473-166.427 269.473-348.86s-118.622-332.692-269.473-348.86z" />
<glyph unicode="&#xe935;" glyph-name="slack-solid" d="M85.333 334.080c0-47.128 38.205-85.333 85.333-85.333s85.333 38.205 85.333 85.333v0 85.333h-85.333c-47.128 0-85.333-38.205-85.333-85.333v0zM624.64 476.587c47.128 0 85.333 38.205 85.333 85.333v0 227.413c0 47.128-38.205 85.333-85.333 85.333s-85.333-38.205-85.333-85.333v-227.413c0-0.001 0-0.003 0-0.004 0-47.128 38.205-85.333 85.333-85.333 0.3 0 0.6 0.002 0.899 0.005h-0.046zM936.96 561.92c0 47.128-38.205 85.333-85.333 85.333s-85.333-38.205-85.333-85.333v0-85.333h85.333c0.508-0.011 1.107-0.017 1.707-0.017 47.128 0 85.333 38.205 85.333 85.333 0 0.006 0 0.012 0 0.018v-0.001zM398.507 419.413c-47.128 0-85.333-38.205-85.333-85.333v0-227.413c0-47.128 38.205-85.333 85.333-85.333s85.333 38.205 85.333 85.333v0 227.413c0 47.128-38.205 85.333-85.333 85.333v0zM625.493 192h-85.333v-85.333c0-47.128 38.205-85.333 85.333-85.333s85.333 38.205 85.333 85.333c0 47.128-38.205 85.333-85.333 85.333v0zM853.333 419.413h-227.84c-47.128 0-85.333-38.205-85.333-85.333s38.205-85.333 85.333-85.333h227.84c47.128 0 85.333 38.205 85.333 85.333s-38.205 85.333-85.333 85.333v0zM398.507 647.253h-227.84c-47.128 0-85.333-38.205-85.333-85.333s38.205-85.333 85.333-85.333h227.84c47.128 0 85.333 38.205 85.333 85.333s-38.205 85.333-85.333 85.333v0zM398.507 874.667c-47.128 0-85.333-38.205-85.333-85.333s38.205-85.333 85.333-85.333v0h85.333v85.333c0 47.128-38.205 85.333-85.333 85.333v0z" />
<glyph unicode="&#xe936;" glyph-name="internet" horiz-adv-x="1365" d="M677.058 64.005c-0.481-0.003-1.050-0.004-1.618-0.004-106.102 0-202.488 41.6-273.737 109.383l0.166-0.157c-6.787 7.525-10.941 17.542-10.941 28.53 0 23.562 19.101 42.666 42.666 42.666 10.35 0 19.838-3.685 27.224-9.813l-0.070 0.056c55.818-52.842 131.376-85.336 214.52-85.336 0.63 0 1.257 0.002 1.887 0.006l-0.097-0.001c0.15 0 0.326-0.001 0.501-0.001 31.431 0 61.806 4.518 90.51 12.942l-2.268-0.57c2.875 0.69 6.177 1.086 9.571 1.086 23.562 0 42.666-19.101 42.666-42.666 0-18.587-11.886-34.398-28.471-40.247l-0.298-0.090c-33.593-10.020-72.19-15.786-112.134-15.786-0.026 0-0.052 0-0.078 0h0.005zM1066.588 392.95c2.757 16.386 4.457 35.418 4.69 54.8l0.003 0.235c-3.11 212.744-176.298 384.012-389.489 384.012-1.663 0-3.326-0.010-4.986-0.030l0.252 0.003c-0.269 0.001-0.583 0.001-0.901 0.001-154.346 0-288.13-88.033-353.883-216.629l-1.041-2.244c-1.672-4.39-2.638-9.467-2.638-14.77 0-23.562 19.101-42.666 42.666-42.666 15.294 0 28.708 8.046 36.238 20.136l0.104 0.181c52.431 102.054 156.978 170.662 277.553 170.662 0.52 0 1.038-0.002 1.554-0.005h-0.079c1.41 0.023 3.076 0.037 4.744 0.037 166.068 0 301.055-133.074 304.145-298.4l0.006-0.29c-0.408-15.378-1.943-30.090-4.53-44.431l0.265 1.769c-0.312-1.938-0.489-4.17-0.489-6.447 0-21.328 15.648-38.999 36.090-42.162l0.238-0.030h6.826c0.143-0.002 0.313-0.004 0.483-0.004 21.306 0 38.963 15.618 42.15 36.029l0.030 0.24zM1191.168 334.072c1.901 7.038 2.993 15.118 2.993 23.454 0 3.16-0.157 6.282-0.462 9.36l0.030-0.39c-1.975 21.906-20.25 38.942-42.501 38.942-1.11 0-2.206-0.042-3.294-0.126l0.145 0.008c-22.084-1.783-39.329-20.145-39.329-42.534 0-2.306 0.184-4.566 0.534-6.774l-0.031 0.244c-8.533-31.998-174.073-69.97-455.659 0-213.324 53.757-359.237 139.086-392.515 195.833-3.236 4.48-5.178 10.081-5.178 16.134 0 0.629 0.020 1.251 0.063 1.866l-0.006-0.084c0.707 2.91 1.112 6.246 1.112 9.68 0 23.562-19.101 42.666-42.666 42.666-19.1 0-35.271-12.552-40.71-29.858l-0.081-0.303c-1.798-7.302-2.829-15.684-2.829-24.307 0-21.597 6.472-41.683 17.58-58.426l-0.245 0.39c51.625-87.462 226.122-180.045 444.994-235.084 93.294-25.267 200.772-40.715 311.546-42.649l1.188-0.018c127.142-0.854 226.122 28.158 245.75 101.97z" />
<glyph unicode="&#xe937;" glyph-name="cell-tower" d="M985.92 891.52c-10.533 21.748-32.437 36.48-57.781 36.48-0.049 0-0.098 0-0.146 0h-831.992c-35.302-0.058-63.898-28.69-63.898-64 0-15.336 5.394-29.413 14.389-40.436l-0.091 0.115 369.6-455.040v-304.64c0-53.019 42.981-96 96-96s96 42.981 96 96v0 304.64l369.6 455.040c8.996 10.939 14.45 25.086 14.45 40.507 0 9.929-2.261 19.33-6.297 27.716l0.166-0.384zM230.4 800h185.6v-224zM608 576v224h185.6z" />
<glyph unicode="&#xe938;" glyph-name="chart-1" d="M950.857-27.429h-146.286c-40.393 0-73.143 32.75-73.143 73.143v512c0 40.393 32.75 73.143 73.143 73.143h146.286c40.393 0 73.143-32.75 73.143-73.143v-512c0-40.393-32.75-73.143-73.143-73.143zM950.857 557.714h-146.286v-512h146.286v512zM585.143-27.429h-146.286c-40.393 0-73.143 32.75-73.143 73.143v804.571c0 40.393 32.75 73.143 73.143 73.143h146.286c40.393 0 73.143-32.75 73.143-73.143v-804.571c0-40.393-32.75-73.143-73.143-73.143zM585.143 850.286h-146.286v-804.571h146.286v804.571zM219.429-27.429h-146.286c-40.393 0-73.143 32.75-73.143 73.143v365.714c0 40.393 32.75 73.143 73.143 73.143h146.286c40.393 0 73.143-32.75 73.143-73.143v-365.714c0-40.393-32.75-73.143-73.143-73.143zM219.429 411.429h-146.286v-365.714h146.286v365.714z" />
<glyph unicode="&#xe939;" glyph-name="chart-2" d="M969.702 82.628h-884.298v765.306c0 17.774-14.812 32.588-33.574 32.588s-33.574-14.812-33.574-32.588v-796.412c0-10.862 5.924-21.232 14.812-27.156 6.912-5.924 15.8-9.382 25.182-9.382h911.454c19.75 0 36.044 14.812 36.044 33.574s-16.294 34.068-36.044 34.068zM172.304 245.070c8.888 0 17.774 3.456 24.194 9.874l163.43 163.43 146.642-146.642c13.332-13.332 35.056-13.332 48.88 0l320.934 320.934c9.874 9.874 12.838 24.688 7.406 37.524s-17.774 21.232-31.6 21.232h-229.098c-18.762 0-34.562-15.306-34.562-34.562s15.306-34.562 34.562-34.562h145.654l-237.986-237.986-146.642 146.642c-13.332 13.332-35.056 13.332-48.88 0l-187.624-187.624c-13.332-13.332-13.332-35.056 0-48.88 7.406-6.418 15.8-9.382 24.688-9.382z" />
<glyph unicode="&#xe93a;" glyph-name="chart-3" d="M971.168-8.376h-920.744v920.744c0 12.857-10.891 23.759-23.748 23.759-0.006 0-0.013 0-0.021 0-13.112 0-23.738-10.629-23.738-23.738 0-0.007 0-0.014 0-0.022v0.001-943.927c0-13.423 10.337-24.314 23.759-24.314h944.494c13.133 0 23.759 10.902 23.759 24.314-0.010 12.292-10.625 23.183-23.759 23.183zM439.396 31.026h176.041c22.083 0 39.68 17.886 39.68 39.401v772.918c0 21.517-17.598 39.125-39.68 39.125h-176.041c-0.019 0-0.038 0-0.060 0-21.569 0-39.054-17.485-39.054-39.054 0-0.025 0-0.048 0-0.073v0.004-772.926c0-21.506 17.321-39.393 39.114-39.393zM478.521 803.665h97.802v-693.845h-97.802v693.845zM137.045 31.026h176.328c21.517 0 39.401 17.886 39.401 39.401v272.454c0 22.083-17.886 39.68-39.401 39.68h-176.328c-21.793 0-39.114-17.598-39.114-39.68v-272.454c0-21.517 17.33-39.401 39.114-39.401zM176.726 303.757h97.246v-193.936h-97.246v193.936zM741.747 31.026h176.328c21.517 0 39.114 17.886 39.114 39.401v562.503c0 21.517-17.598 39.68-39.114 39.68h-176.328c-21.785 0-39.68-18.164-39.68-39.68v-562.503c0-21.517 17.895-39.401 39.68-39.401zM781.428 593.531h96.968v-483.709h-96.968v483.709z" />
<glyph unicode="&#xe93b;" glyph-name="chat-1" d="M406.789 3.934c-4.423 0-8.845 1.077-12.895 3.228-9.237 4.89-14.909 14.604-14.631 25.038l2.689 102.543h-69.049c-52.627 0-90.2 43.377-90.2 96.681v359.88c0 51.958 37.57 94.217 90.2 94.217h552.659c52.627 0 100.687-42.261 100.687-94.217v-359.88c0-53.303-48.059-96.681-100.687-96.681h-267.48l-175.25-125.647c-4.761-3.416-10.395-5.163-16.043-5.163zM312.904 630.451c-22.631 0-35.124-17.199-35.124-39.143v-359.88c0-22.563 13.244-41.604 35.124-41.604h97.329c7.435 0 14.552-2.986 19.728-8.308 5.19-5.325 8.002-12.534 7.799-19.957l-1.979-75.409 137.41 98.511c4.68 3.361 10.288 5.163 16.041 5.163h276.33c21.879 0 45.61 19.041 45.61 41.604v359.88c0 21.945-22.98 39.143-45.61 39.143h-552.659zM115.023 363.311c-6.496 0-10.381 2.286-15.625 6.939-20.141 17.831-28.157 41.254-28.157 67.718v359.879c0 51.958 37.57 94.217 90.2 94.217h552.658c52.627 0 100.687-42.261 100.687-94.217v-15.935c0-15.208-12.328-27.541-27.541-27.541s-27.541 12.328-27.541 27.541v15.935c0 21.945-22.98 39.143-45.611 39.143h-552.659c-22.631 0-35.124-17.199-35.124-39.143v-359.88c0-10.542 1.371-19.202 9.601-26.49 11.389-10.084 11.134-27.513 1.046-38.889-5.459-6.13-14.334-9.275-21.945-9.275zM492.847 506.525h-110.153c-7.61 0-13.77 6.159-13.77 13.77s6.159 13.77 13.77 13.77h110.155c7.61 0 13.771-6.159 13.771-13.77s-6.16-13.77-13.775-13.77zM685.619 506.525h-137.693c-7.61 0-13.77 6.159-13.77 13.77s6.159 13.77 13.77 13.77h137.693c7.61 0 13.77-6.159 13.77-13.77s-6.159-13.77-13.77-13.77zM795.774 506.525h-55.078c-7.61 0-13.77 6.159-13.77 13.77s6.157 13.77 13.77 13.77h55.078c7.61 0 13.77-6.159 13.77-13.77s-6.159-13.77-13.77-13.77zM437.77 437.667h-55.077c-7.61 0-13.77 6.159-13.77 13.77s6.159 13.775 13.77 13.775h55.077c7.61 0 13.77-6.165 13.77-13.775s-6.159-13.77-13.77-13.77zM603.001 437.667h-110.155c-7.61 0-13.77 6.159-13.77 13.77s6.157 13.775 13.77 13.775h110.155c7.61 0 13.77-6.165 13.77-13.775s-6.157-13.77-13.77-13.77zM795.774 437.667h-137.693c-7.61 0-13.77 6.159-13.77 13.77s6.159 13.775 13.77 13.775h137.693c7.61 0 13.77-6.165 13.77-13.775s-6.159-13.77-13.77-13.77zM520.387 355.054h-137.697c-7.61 0-13.77 6.157-13.77 13.77s6.159 13.771 13.77 13.771h137.697c7.61 0 13.77-6.159 13.77-13.771s-6.16-13.77-13.77-13.77zM713.157 355.054h-137.693c-7.61 0-13.77 6.157-13.77 13.77s6.159 13.771 13.77 13.771h137.693c7.61 0 13.771-6.159 13.771-13.771s-6.159-13.77-13.771-13.77zM795.774 355.054h-27.541c-7.61 0-13.77 6.157-13.77 13.77s6.157 13.771 13.77 13.771h27.541c7.61 0 13.77-6.159 13.77-13.771s-6.159-13.77-13.77-13.77zM437.77 286.207h-55.077c-7.61 0-13.77 6.159-13.77 13.77s6.159 13.77 13.77 13.77h55.077c7.61 0 13.77-6.159 13.77-13.77s-6.159-13.77-13.77-13.77zM589.231 286.207h-96.385c-7.61 0-13.77 6.159-13.77 13.77s6.157 13.77 13.77 13.77h96.385c7.61 0 13.771-6.159 13.771-13.77s-6.159-13.77-13.771-13.77z" />
<glyph unicode="&#xe93c;" glyph-name="chat-2" d="M460 128c-20 0-40 16-40 36 0 24 16 40 36 44 168 12 296 152 296 320 0 176-144 320-320 320s-320-144-320-320c0-124 72-236 184-288 20-8 28-32 20-52s-32-28-52-20c-140 64-232 204-232 360 0 220 180 400 400 400s400-180 400-400c0-208-164-384-372-400 0 0 0 0 0 0zM232-32c-16 0-32 12-36 28s0 36 16 44c8 8 88 72 40 140-12 16-8 44 8 56 12 12 36 8 52-8 40-56 40-112 20-160 40 20 72 60 88 112 8 20 28 32 52 28 20-8 32-28 28-48-24-72-88-192-268-192zM712 76c-4 0-4 0 0 0-80 4-144 36-188 88-16 16-12 44 4 56 16 16 44 12 56-4 32-36 72-56 128-60 24 0 40-20 36-44 0-20-16-36-36-36zM828 88c-16 0-28 8-36 24-8 20 0 44 20 52 64 28 104 92 104 164 0 80-52 152-132 172-20 8-32 28-28 48s28 32 48 28c112-32 188-136 188-252 0-100-60-192-148-236-8 0-12 0-16 0zM856-32c-88 0-152 48-176 128-8 20 4 44 28 48 20 8 44-4 52-28 4-12 8-24 16-36 0 20 8 44 24 68 12 16 40 20 56 8s20-40 8-56c-24-32 16-60 20-64 12-12 20-28 16-44-12-12-28-24-44-24zM592 568h-320c-24 0-40 16-40 40s16 40 40 40h320c24 0 40-16 40-40s-16-40-40-40zM512 408h-240c-24 0-40 16-40 40s16 40 40 40h240c24 0 40-16 40-40s-16-40-40-40z" />
<glyph unicode="&#xe93d;" glyph-name="construction-traffic-monochrome" d="M901.393 651.981h122.607v102.4h-181.589l-65.809-102.4h-55.979l-235.383 205.892-93.935-105.131-103.492 105.677-179.951-206.438h-107.861l114.142-300.1c-37.956-32.768-62.805-80.828-62.805-135.168 0-98.85 80.282-179.132 179.132-179.132 94.208 0 170.94 73.455 177.766 166.025l206.165 77.005v-243.302h102.4v332.868l184.593 281.805zM493.978 714.24l70.997-62.259h-74.82l-27.034 27.58 30.857 34.679zM292.181 707.686l54.613-55.433h-102.946l48.333 55.433zM148.275 549.581h562.244l-107.588-163.84-217.361-81.374c-30.857 54.34-88.474 91.477-155.102 91.477-7.919 0-15.292-1.365-22.938-2.185l-59.255 155.921zM230.468 139.981c-42.325 0-76.732 34.406-76.732 76.732s34.406 76.732 76.732 76.732c42.325 0 76.732-34.406 76.732-76.732s-34.406-76.732-76.732-76.732z" />
<glyph unicode="&#xe93e;" glyph-name="device-search" d="M230.649 743.933h512v-75.889h-512v75.889zM230.649 546.865h512v-75.889h-512v75.889zM230.649 346.152h227.556v-75.889h-227.556v75.889zM439.646 11.889h-332.165v872.222h758.445v-413.135c0-20.988 17.011-37.889 37.889-37.889 20.988 0 37.889 17.011 37.889 37.889v413.135c0 41.866-34.023 75.889-75.889 75.889h-758.334c-41.866 0-75.889-34.023-75.889-75.889v-872.222c0-41.866 34.023-75.889 75.889-75.889h332.165c20.988 0 37.889 17.011 37.889 37.889 0 20.988-17.011 38-37.889 38zM981.582 14.761l-101.406 103.284c20.325 31.814 31.040 68.709 31.040 106.377 0 109.801-89.365 199.056-199.056 199.056s-199.056-89.365-199.056-199.166 89.365-199.056 199.056-199.056c43.302 0 83.179 14.029 115.877 37.558l99.307-101.185c7.18-7.291 16.901-11.378 27.064-11.378 20.988 0 37.889 17.011 37.889 37.889 0.11 9.942-3.756 19.442-10.715 26.622zM712.16 101.033c-67.935 0-123.278 55.342-123.278 123.278s55.342 123.278 123.278 123.278 123.278-55.342 123.278-123.278-55.342-123.278-123.278-123.278z" />
<glyph unicode="&#xe93f;" glyph-name="fail" d="M717.369 653.938c-14.222 14.222-36.978 14.222-51.2 0l-154.169-154.738-154.169 154.169c-14.222 14.222-36.978 14.222-51.2 0s-14.222-36.978 0-51.2l154.738-154.169-154.738-154.738c-14.222-14.222-14.222-36.978 0-51.2s36.978-14.222 51.2 0l154.169 154.738 154.169-154.738c13.653-14.222 36.409-14.222 50.631-0.569l0.569 0.569c14.222 14.222 14.222 36.978 0 50.631l-154.738 155.307 154.738 154.738c14.222 14.222 14.222 36.978 0 51.2 0-0.569 0 0 0 0zM512 960c-282.738 0-512-229.262-512-512s229.262-512 512-512 512 229.262 512 512-229.262 512-512 512zM823.182 136.818c-82.489-82.489-194.56-129.138-311.182-128.569-116.622 0-228.693 46.080-311.182 128.569s-129.138 194.56-129.138 311.182 46.080 228.693 129.138 311.182c82.489 82.489 194.56 129.138 311.182 128.569 116.622 0 228.693-46.080 311.182-129.138 82.489-82.489 129.138-194.56 128.569-311.182 0.569-116.053-46.080-228.124-128.569-310.613z" />
<glyph unicode="&#xe940;" glyph-name="clock" d="M976 448c0 256.262-207.738 464-464 464s-464-207.738-464-464c0-256.262 207.738-464 464-464 102.69 0 200.362 33.478 280.438 94.307 9.715 7.383 11.611 21.245 4.227 30.959s-21.245 11.611-30.959 4.227c-72.451-55.039-160.75-85.303-253.707-85.303-231.855 0-419.81 187.953-419.81 419.81s187.953 419.81 419.81 419.81c231.855 0 419.81-187.953 419.81-419.81 0-85.858-25.803-167.8-73.298-237.076-6.9-10.063-4.333-23.815 5.729-30.715s23.815-4.333 30.715 5.729c52.501 76.581 81.044 167.218 81.044 262.068zM489.905 359.62c0-12.205 9.89-22.095 22.095-22.095s22.095 9.89 22.095 22.095v331.43c0 12.205-9.89 22.095-22.095 22.095s-22.095-9.89-22.095-22.095v-331.43zM484.437 484.644c-8.033 9.186-21.996 10.116-31.176 2.078s-10.116-21.996-2.078-31.176l154.665-176.76c8.033-9.186 21.996-10.116 31.176-2.078s10.116 21.996 2.078 31.176l-154.665 176.76z" />
<glyph unicode="&#xe941;" glyph-name="clock-1" d="M512-16c-255.2 0-464 208.8-464 464s208.8 464 464 464 464-208.8 464-464-208.8-464-464-464zM512 834.665c-212.665 0-386.665-174-386.665-386.665s174-386.665 386.665-386.665 386.665 174 386.665 386.665-174 386.665-386.665 386.665zM512 409.335c-23.2 0-38.665 15.465-38.665 38.665v270.665c0 23.2 15.465 38.665 38.665 38.665s38.665-15.465 38.665-38.665v-270.665c0-23.2-15.465-38.665-38.665-38.665zM666.665 254.665c-11.6 0-19.335 3.865-27.065 11.6l-154.665 154.665c-15.465 15.465-15.465 38.665 0 54.135s38.665 15.465 54.135 0l154.665-154.665c15.465-15.465 15.465-38.665 0-54.135-7.735-7.735-15.465-11.6-27.065-11.6z" />
<glyph unicode="&#xe942;" glyph-name="code" d="M984.752 427.28l-194.32-194.080c-12-11.968-31.456-11.968-43.456 0-11.984 11.984-11.984 31.392 0 43.36l172.64 172.4-172.64 172.384c-11.984 11.984-11.984 31.392 0 43.36 12 11.984 31.456 11.984 43.456 0l194.32-194.064c12-11.984 12-31.392 0-43.36zM347.776 48.432c-8.832-15.424-28.4-20.72-43.712-11.808-15.312 8.896-20.544 28.624-11.712 44.048l384 766.896c8.832 15.44 28.4 20.72 43.712 11.808 15.312-8.896 20.544-28.624 11.712-44.048l-384-766.896zM277.152 233.2c-12-11.968-31.456-11.968-43.456 0l-194.336 194.080c-11.984 11.968-11.984 31.376 0 43.36l194.336 194.064c12 11.984 31.456 11.984 43.456 0 11.984-11.968 11.984-31.376 0-43.36l-172.624-172.384 172.624-172.4c11.984-11.968 11.984-31.376 0-43.36z" />
<glyph unicode="&#xe943;" glyph-name="compass" d="M269.559 205.452c0 0 243.614 33.438 347.609 137.379s137.379 347.609 137.379 347.609-243.668-33.438-347.609-137.379-137.379-347.609-137.379-347.609zM459.576 500.531c43.625 43.625 127.193 74.663 198.87 93.968-19.252-71.569-50.397-155.725-93.862-199.029-28.959-29.065-76.049-29.065-105.008 0-29.065 28.959-29.065 75.996 0 105.061zM512.053 959.973c-282.812 0-512.027-229.215-512.027-511.973 0-282.812 229.215-512.027 512.027-512.027 282.705 0 511.973 229.215 511.973 512.027 0 282.758-229.268 511.973-511.973 511.973zM512 42.688c-223.828 0-405.312 181.43-405.312 405.312 0 223.828 181.43 405.312 405.312 405.312 223.828 0 405.365-181.43 405.365-405.312 0-223.828-181.537-405.312-405.365-405.312z" />
<glyph unicode="&#xe944;" glyph-name="construction1" d="M1003.861 706.389c0 18.851-15.282 34.133-34.133 34.133v0h-225.109v-40.277h218.965v-73.216h-218.965v-40.277h225.109c18.851 0 34.133 15.282 34.133 34.133v0zM20.139 621.056c0-18.851 15.282-34.133 34.133-34.133v0h504.32v40.107h-498.176v73.216h498.176v40.277h-504.32c-18.851 0-34.133-15.282-34.133-34.133v0zM749.739 925.867c0 18.851-15.282 34.133-34.133 34.133h-128c-18.851 0-34.133-15.282-34.133-34.133v0-766.293c0-18.851 15.282-34.133 34.133-34.133v0h128c18.851 0 34.133 15.282 34.133 34.133v0zM709.461 165.717h-115.883v754.005h115.883zM715.998 888.235l18.074 22.272 219.904-178.347-18.057-22.255zM297.131 592.896c0 18.851-15.282 34.133-34.133 34.133h-85.333c-18.851 0-34.133-15.282-34.133-34.133v0-155.819c0-18.851 15.282-34.133 34.133-34.133v0h85.333c18.851 0 34.133 15.282 34.133 34.133v0zM256.853 443.051h-73.216v143.701h73.216zM134.229 732.058l437.555 176.691 10.752-26.59-437.589-176.691zM839.339 131.413c0 18.851-15.282 34.133-34.133 34.133h-307.2c-18.851 0-34.133-15.282-34.133-34.133v-161.28c0-18.851 15.282-34.133 34.133-34.133v0h307.2c18.851 0 34.133 15.282 34.133 34.133v0zM799.061-23.723h-295.595v148.992h295.936zM324.608 254.293c-8.562 31.778-30.745 57.152-59.738 69.879l-0.678 0.265c-4.291 1.991-9.61 4.020-15.075 5.715l-0.967 0.258h-9.728v61.44c-0.058 9.688-7.512 17.617-16.998 18.427l-0.069 0.005c-0.422 0.035-0.914 0.056-1.41 0.056-4.739 0-9.048-1.839-12.253-4.843l0.010 0.009c-3.789-3.613-6.145-8.7-6.145-14.337 0-0.060 0-0.119 0.001-0.179v0.009-74.069c0-0.019 0-0.041 0-0.064 0-9.733 7.475-17.721 16.998-18.534l0.069-0.005c32.806-1.871 60.044-23.753 69.817-53.55l0.157-0.551c1.336-4.969 2.104-10.675 2.104-16.559 0-15.449-5.29-29.662-14.158-40.926l0.107 0.142c-12.889-16.579-32.836-27.144-55.251-27.144-0.376 0-0.751 0.003-1.126 0.009l0.056-0.001c-28.492 0.514-53.433 15.257-68.074 37.407l-0.193 0.311c-3.94 6.111-10.251 10.403-17.602 11.586l-0.148 0.020c-2.979-0.079-5.738-0.958-8.089-2.429l0.067 0.039c-11.605-6.997-9.387-19.285-5.461-28.501 21.029-33.286 57.505-55.148 99.11-55.466h0.047c34.582 0.063 65.355 16.314 85.155 41.577l0.178 0.236c13.986 17.505 22.442 39.96 22.442 64.391 0 9.015-1.152 17.762-3.316 26.1l0.159-0.72z" />
<glyph unicode="&#xe945;" glyph-name="construction-1" d="M245.646 412.131h-158.008v173.54h158.008v-173.54zM959.289 275.013h22.763v-66.952h-22.763v-49.946h-84.159c-10.394-38.64-45.062-66.635-86.288-66.751h-0.013c-41.208 0.16-75.836 28.139-86.090 66.125l-0.144 0.626h-283.576v49.946h-12.352v-43.887h-92.628c-7.867-41.376-44.222-72.843-87.908-72.843s-80.042 31.4-87.875 72.843h-111.375v43.887h-26.881v66.952h26.881v372.824h379.787v-372.824h12.352v102.638h270.119v37.393l-28.254 0.067-215.519 190.211 75.756 199.35 287.358-0.703 215.519-190.278-75.723-199.35-70.97 0.201v-36.891h81.917v-102.638h0.067zM282.301 180.912c0 30.933-25.174 56.105-56.14 56.105-30.933 0-56.105-25.174-56.105-56.105s25.174-56.105 56.105-56.105c30.97 0.057 56.063 25.138 56.14 56.099v0.007zM373.223 614.361h-312.835v-416.678h77.899c7.833 41.443 44.189 72.878 87.875 72.878s80.042-31.4 87.908-72.878h59.152v416.678zM925.278 447.884l59.286 156.066-188.671 166.544-251.64 0.67-59.286-156.032 188.671-166.576 251.64-0.67zM845.002 180.912c-1.076 30.178-25.799 54.234-56.14 54.234s-55.064-24.056-56.136-54.136l-0.003-0.098c1.076-30.178 25.799-54.234 56.14-54.234s55.064 24.056 56.136 54.136l0.003 0.098zM925.813 344.175h-473.319v-152.651h247.857c5.357 44.323 42.715 78.87 88.511 78.87s83.188-34.547 88.578-78.87h48.406v152.651z" />
<glyph unicode="&#xe946;" glyph-name="construction-2" d="M984.222 809.786l-204.708 52.318c-4.072 0.987-8.144 1.604-12.339 1.604-13.697 0-26.776-5.553-36.277-15.301l-171.762-175.587c-0.617 1.727-1.357 3.455-2.098 5.059l-51.208 104.637c-8.391 17.645-26.159 28.75-45.655 28.874h-153.87c-28.504-0.247-51.455-23.691-51.208-52.195v-157.202h-204.708c-28.504-0.247-51.455-23.568-51.208-52.195v-104.76c-0.37-28.504 22.581-51.948 51.084-52.318h204.831v-52.071h-102.169c-57.748-0.123-104.513-47.012-104.39-104.76 0.123-57.624 46.766-104.39 104.39-104.39h511.831c57.748 0.123 104.513 47.012 104.39 104.76-0.123 57.624-46.766 104.39-104.39 104.39h-204.708v52.318h51.208c15.424 0.123 29.861 7.157 39.485 19.126l254.064 315.884 153.006-19.866-52.688-201.253-118.95 28.010 13.080 48.246c3.949 13.82-3.949 28.133-17.768 32.205-13.697 3.702-27.763-4.195-31.465-17.892 0-0.123-0.123-0.247-0.123-0.37 0 0-45.285-136.965-28.010-181.386 8.267-21.47 25.295-38.498 46.766-47.012 26.159-11.969 54.416-18.756 83.29-20.113 14.313-0.37 28.504 2.838 41.46 9.131 19.743 10.612 33.933 29.244 38.869 51.084l90.446 343.4c3.455 26.159-12.956 50.838-38.498 57.624zM664.759 288.454c28.874 0 52.318-23.445 52.195-52.318 0-28.874-23.445-52.195-52.195-52.195h-511.831c-28.874 0-52.318 23.445-52.195 52.318 0 28.874 23.445 52.195 52.195 52.195h511.831zM306.305 340.649v52.195h102.415v-52.195h-102.415zM511.26 445.285h-460.87v104.637h460.87v-104.637zM511.26 602.117h-204.954v156.955h153.747l51.208-104.637v-52.318zM882.917 422.458c-1.234-7.527-5.676-14.067-12.339-17.892-8.514-4.442-30.971-8.514-82.549 12.586-8.267 2.961-14.93 9.501-18.139 17.645-4.566 16.411-4.195 33.809 1.111 49.974l120.801-28.38-8.884-33.933zM971.019 759.072l-187.803 24.432-220.749-274.547v93.161l204.708 209.15 203.844-52.195z" />
<glyph unicode="&#xe947;" glyph-name="construction-3" d="M327.409 490.052l144.178 144.724 67.993-68.266c34.679-34.952 56.524-100.761 50.517-145.816-36.317-16.93-75.912-49.698-75.912-49.698-42.325 3.277-91.749 24.030-118.783 51.063l-67.993 67.993zM894.836 39.769h-732.904c-16.384 8.738-52.974 31.675-58.709 64.443-4.096 23.21 4.096 48.059 22.118 65.808 29.491 29.491 80.827 29.491 110.318 0 19.934-19.934 52.428-19.661 72.362 0.273 6.554 6.554 66.081 62.259 155.1 24.576 25.668-10.923 55.705 1.092 66.901 26.76 34.679 80.554 117.144 130.251 203.706 123.698 97.211-7.1 177.765-85.469 187.595-181.861 4.096-43.69-5.188-87.107-26.487-123.698zM363.18 670.82l-178.584 179.676 35.225 35.771-72.089 72.089-144.451-144.451 72.089-72.089 36.864 36.864 179.13-180.222-72.089-72.089c-20.48-19.934-20.48-52.701 0-72.635l104.037-104.037c15.838-15.838 35.771-29.218 56.797-40.96-45.875-4.642-83.831-22.391-108.679-38.229-67.993 39.867-161.381 28.672-217.905-28.126-41.779-41.779-60.893-100.214-50.517-156.193 16.93-96.392 116.871-139.809 128.067-144.997 6.007-1.911 12.834-3.55 19.388-3.55h771.679c15.019 0 29.764 6.28 39.048 18.022 47.786 61.166 69.358 139.263 61.439 218.451-14.199 144.997-135.713 262.414-281.256 273.064-16.384 1.638-32.768 1.092-48.605-0.546-3.004 72.908-36.864 148.001-80.554 191.964l-104.31 104.583c-19.934 19.934-52.428 19.934-72.362 0l-72.362-72.362z" />
</font>
</defs>
</svg>
